<svg width="30" height="44" viewBox="0 0 30 44" fill="none" xmlns="http://www.w3.org/2000/svg">
<path d="M0 0H24C27.3137 0 30 2.68629 30 6V38C30 41.3137 27.3137 44 24 44H0V0Z" fill="#F0F4FD"/>
<path d="M14.5404 26.5846C14.7942 26.8385 15.2058 26.8385 15.4596 26.5846L19.5962 22.448C19.85 22.1942 19.85 21.7826 19.5962 21.5288C19.3424 21.275 18.9308 21.275 18.677 21.5288L15 25.2058L11.323 21.5288C11.0692 21.275 10.6576 21.275 10.4038 21.5288C10.15 21.7826 10.15 22.1942 10.4038 22.448L14.5404 26.5846ZM14.35 24.75L14.35 26.125L15.65 26.125L15.65 24.75L14.35 24.75Z" fill="#29375F" fill-opacity="0.7"/>
</svg>