<svg width="527" height="330" viewBox="0 0 527 330" fill="none" xmlns="http://www.w3.org/2000/svg">
<g clip-path="url(#clip0_65_33)">
<path opacity="0.2" d="M61.7718 289.973C206.736 290.797 351.7 291.621 496.664 292.454C509.18 292.454 513.77 272.656 508.85 261.154C503.939 249.652 493.632 241.291 487.64 230.312C480.685 217.564 480.218 201.484 486.421 188.352C490.352 180.019 496.692 173.013 500.751 164.744C512.918 139.927 498.799 105.944 472.614 97.0516C448.096 88.7182 421.544 100.77 399.637 114.57C377.73 128.37 355.539 144.799 329.674 146.09C317.012 146.722 303.452 143.041 295.224 133.389C286.42 123.068 285.228 108.077 277.321 97.0607C268.7 85.0461 253.124 79.579 238.336 79.6431C223.549 79.7072 209.228 84.5149 195.311 89.5149C179.405 95.2292 163.316 101.411 150.095 111.942C142.555 117.94 135.757 125.998 134.914 135.596C133.548 151.191 148.107 164.945 146.54 180.522C145.807 187.784 141.602 194.231 136.929 199.845C128.115 210.403 115.6 219.661 101.902 218.416C89.2401 217.262 79.2716 207.638 69.8529 199.094C60.8739 190.953 51.1162 183.169 39.5627 179.506C36.5208 178.544 15.6219 173.425 5.36021 185.284C-1.6397 193.361 0.0827874 205.009 0.504248 207.867C2.08015 218.572 8.35625 225.751 10.94 228.737C23.1257 242.775 40.149 263.672 61.7718 289.973Z" fill="#A6CAFC"/>
<path opacity="0.2" d="M229.696 327.812C258.301 327.812 281.49 326.164 281.49 324.131C281.49 322.097 258.301 320.449 229.696 320.449C201.091 320.449 177.902 322.097 177.902 324.131C177.902 326.164 201.091 327.812 229.696 327.812Z" fill="#A6CAFC"/>
<path opacity="0.2" d="M157.37 330C185.975 330 209.164 328.352 209.164 326.319C209.164 324.286 185.975 322.638 157.37 322.638C128.765 322.638 105.576 324.286 105.576 326.319C105.576 328.352 128.765 330 157.37 330Z" fill="#A6CAFC"/>
<path d="M211.83 315.532C211.693 317.555 211.629 317.977 211.317 318.453C210.694 319.414 209.604 319.79 208.431 320.193C206.636 320.806 205.93 320.513 205.389 321.136C205.023 321.566 204.721 322.418 205.353 324.332C209.989 324.14 214.616 323.947 219.252 323.755C219.252 323.682 219.252 320.641 219.252 320.577C219.252 319.863 219.252 311.026 219.252 310.293C218.125 310.651 212.71 313.032 212.023 312.116C211.977 313.096 211.913 314.24 211.83 315.532Z" fill="#5F88D2"/>
<path d="M230.722 320.312C231.171 319.249 232.243 318.59 233.324 318.169C234.671 317.638 236.146 317.372 237.585 317.537C239.023 317.702 240.434 318.325 241.433 319.368C240.361 317.372 239.344 315.229 238.428 312.931C238.318 312.647 238.208 312.363 238.098 312.079C237.887 312.189 237.704 312.235 237.603 312.262C236.494 312.5 235.963 311.63 234.314 311.832C233.068 311.914 232.014 312.235 231.217 312.564C231.153 313.013 231.07 313.636 230.997 314.387C230.997 314.387 230.915 315.303 230.851 316.328C230.704 318.746 230.438 321.264 230.759 323.673C234.515 323.526 238.263 323.041 241.928 322.216C241.983 321.182 241.946 320.147 241.809 319.121C241.772 318.847 241.726 318.563 241.552 318.352C241.36 318.123 241.057 318.022 240.764 317.94C239.097 317.473 237.365 317.143 235.633 317.244C234.543 317.308 233.453 317.546 232.463 318.013C231.235 318.599 230.722 318.956 230.722 320.312Z" fill="#5F88D2"/>
<path d="M432.904 289.991H277.77V123.965C277.77 121.694 279.611 119.854 281.883 119.854H428.79C431.062 119.854 432.904 121.694 432.904 123.965V289.991Z" fill="#203765"/>
<path d="M372.764 292.015H217.621V123.434C217.621 121.163 219.463 119.322 221.735 119.322H368.651C370.923 119.322 372.764 121.163 372.764 123.434V292.015Z" fill="#5F88D2"/>
<path d="M346.908 119.322H368.174C370.712 119.322 372.773 121.383 372.773 123.919V136.593H346.917V119.322H346.908Z" stroke="#FDE1F1" stroke-miterlimit="10"/>
<path d="M346.908 119.322H321.053V136.593H346.908V119.322Z" stroke="#FDE1F1" stroke-miterlimit="10"/>
<path d="M321.053 119.322H295.197V136.593H321.053V119.322Z" stroke="#FDE1F1" stroke-miterlimit="10"/>
<path d="M295.198 119.322H269.342V136.593H295.198V119.322Z" stroke="#FDE1F1" stroke-miterlimit="10"/>
<path d="M269.342 119.322H243.486V136.593H269.342V119.322Z" stroke="#FDE1F1" stroke-miterlimit="10"/>
<path d="M221.717 119.322H243.487V136.593H217.631V123.416C217.622 121.154 219.454 119.322 221.717 119.322Z" stroke="#FDE1F1" stroke-miterlimit="10"/>
<path d="M372.764 136.594H346.908V153.865H372.764V136.594Z" stroke="#FDE1F1" stroke-miterlimit="10"/>
<path d="M346.908 136.594H321.053V153.865H346.908V136.594Z" stroke="#FDE1F1" stroke-miterlimit="10"/>
<path d="M321.053 136.594H295.197V153.865H321.053V136.594Z" stroke="#FDE1F1" stroke-miterlimit="10"/>
<path d="M295.198 136.594H269.342V153.865H295.198V136.594Z" stroke="#FDE1F1" stroke-miterlimit="10"/>
<path d="M269.342 136.594H243.486V153.865H269.342V136.594Z" stroke="#FDE1F1" stroke-miterlimit="10"/>
<path d="M243.477 136.594H217.621V153.865H243.477V136.594Z" stroke="#FDE1F1" stroke-miterlimit="10"/>
<path d="M372.764 153.864H346.908V171.135H372.764V153.864Z" stroke="#FDE1F1" stroke-miterlimit="10"/>
<path d="M346.908 153.864H321.053V171.135H346.908V153.864Z" stroke="#FDE1F1" stroke-miterlimit="10"/>
<path d="M321.053 153.864H295.197V171.135H321.053V153.864Z" stroke="#FDE1F1" stroke-miterlimit="10"/>
<path d="M295.198 153.864H269.342V171.135H295.198V153.864Z" stroke="#FDE1F1" stroke-miterlimit="10"/>
<path d="M269.342 153.864H243.486V171.135H269.342V153.864Z" stroke="#FDE1F1" stroke-miterlimit="10"/>
<path d="M243.477 153.864H217.621V171.135H243.477V153.864Z" stroke="#FDE1F1" stroke-miterlimit="10"/>
<path d="M372.764 171.136H346.908V188.407H372.764V171.136Z" stroke="#FDE1F1" stroke-miterlimit="10"/>
<path d="M346.908 171.136H321.053V188.407H346.908V171.136Z" stroke="#FDE1F1" stroke-miterlimit="10"/>
<path d="M321.053 171.136H295.197V188.407H321.053V171.136Z" stroke="#FDE1F1" stroke-miterlimit="10"/>
<path d="M295.198 171.136H269.342V188.407H295.198V171.136Z" stroke="#FDE1F1" stroke-miterlimit="10"/>
<path d="M269.342 171.136H243.486V188.407H269.342V171.136Z" stroke="#FDE1F1" stroke-miterlimit="10"/>
<path d="M243.477 171.136H217.621V188.407H243.477V171.136Z" stroke="#FDE1F1" stroke-miterlimit="10"/>
<path d="M372.764 188.407H346.908V205.678H372.764V188.407Z" stroke="#FDE1F1" stroke-miterlimit="10"/>
<path d="M346.908 188.407H321.053V205.678H346.908V188.407Z" stroke="#FDE1F1" stroke-miterlimit="10"/>
<path d="M321.053 188.407H295.197V205.678H321.053V188.407Z" stroke="#FDE1F1" stroke-miterlimit="10"/>
<path d="M295.198 188.407H269.342V205.678H295.198V188.407Z" stroke="#FDE1F1" stroke-miterlimit="10"/>
<path d="M269.342 188.407H243.486V205.678H269.342V188.407Z" stroke="#FDE1F1" stroke-miterlimit="10"/>
<path d="M243.477 188.407H217.621V205.678H243.477V188.407Z" stroke="#FDE1F1" stroke-miterlimit="10"/>
<path d="M372.764 205.668H346.908V222.94H372.764V205.668Z" stroke="#FDE1F1" stroke-miterlimit="10"/>
<path d="M346.908 205.668H321.053V222.94H346.908V205.668Z" stroke="#FDE1F1" stroke-miterlimit="10"/>
<path d="M321.053 205.668H295.197V222.94H321.053V205.668Z" stroke="#FDE1F1" stroke-miterlimit="10"/>
<path d="M295.198 205.668H269.342V222.94H295.198V205.668Z" stroke="#FDE1F1" stroke-miterlimit="10"/>
<path d="M269.342 205.668H243.486V222.94H269.342V205.668Z" stroke="#FDE1F1" stroke-miterlimit="10"/>
<path d="M243.477 205.668H217.621V222.94H243.477V205.668Z" stroke="#FDE1F1" stroke-miterlimit="10"/>
<path d="M372.764 222.939H346.908V240.21H372.764V222.939Z" stroke="#FDE1F1" stroke-miterlimit="10"/>
<path d="M346.908 222.939H321.053V240.21H346.908V222.939Z" stroke="#FDE1F1" stroke-miterlimit="10"/>
<path d="M321.053 222.939H295.197V240.21H321.053V222.939Z" stroke="#FDE1F1" stroke-miterlimit="10"/>
<path d="M295.198 222.939H269.342V240.21H295.198V222.939Z" stroke="#FDE1F1" stroke-miterlimit="10"/>
<path d="M269.342 222.939H243.486V240.21H269.342V222.939Z" stroke="#FDE1F1" stroke-miterlimit="10"/>
<path d="M243.477 222.939H217.621V240.21H243.477V222.939Z" stroke="#FDE1F1" stroke-miterlimit="10"/>
<path d="M372.764 240.21H346.908V257.482H372.764V240.21Z" stroke="#FDE1F1" stroke-miterlimit="10"/>
<path d="M346.908 240.21H321.053V257.482H346.908V240.21Z" stroke="#FDE1F1" stroke-miterlimit="10"/>
<path d="M321.053 240.21H295.197V257.482H321.053V240.21Z" stroke="#FDE1F1" stroke-miterlimit="10"/>
<path d="M295.198 240.21H269.342V257.482H295.198V240.21Z" stroke="#FDE1F1" stroke-miterlimit="10"/>
<path d="M269.342 240.21H243.486V257.482H269.342V240.21Z" stroke="#FDE1F1" stroke-miterlimit="10"/>
<path d="M243.477 240.21H217.621V257.482H243.477V240.21Z" stroke="#FDE1F1" stroke-miterlimit="10"/>
<path d="M372.764 257.481H346.908V274.752H372.764V257.481Z" stroke="#FDE1F1" stroke-miterlimit="10"/>
<path d="M346.908 257.481H321.053V274.752H346.908V257.481Z" stroke="#FDE1F1" stroke-miterlimit="10"/>
<path d="M321.053 257.481H295.197V274.752H321.053V257.481Z" stroke="#FDE1F1" stroke-miterlimit="10"/>
<path d="M295.198 257.481H269.342V274.752H295.198V257.481Z" stroke="#FDE1F1" stroke-miterlimit="10"/>
<path d="M269.342 257.481H243.486V274.752H269.342V257.481Z" stroke="#FDE1F1" stroke-miterlimit="10"/>
<path d="M243.477 257.481H217.621V274.752H243.477V257.481Z" stroke="#FDE1F1" stroke-miterlimit="10"/>
<path d="M372.764 274.752H346.908V292.024H372.764V274.752Z" stroke="#FDE1F1" stroke-miterlimit="10"/>
<path d="M346.908 274.752H321.053V292.024H346.908V274.752Z" stroke="#FDE1F1" stroke-miterlimit="10"/>
<path d="M321.053 274.752H295.197V292.024H321.053V274.752Z" stroke="#FDE1F1" stroke-miterlimit="10"/>
<path d="M295.198 274.752H269.342V292.024H295.198V274.752Z" stroke="#FDE1F1" stroke-miterlimit="10"/>
<path d="M269.342 274.752H243.486V292.024H269.342V274.752Z" stroke="#FDE1F1" stroke-miterlimit="10"/>
<path d="M243.477 274.752H217.621V292.024H243.477V274.752Z" stroke="#FDE1F1" stroke-miterlimit="10"/>
<path d="M114.646 258.013H65.3172C49.5216 258.013 36.6762 245.174 36.6762 229.387C36.6762 213.608 49.5216 200.76 65.3172 200.76H90.0735C99.2998 200.76 106.785 193.288 106.785 184.066C106.785 174.845 99.309 167.372 90.0735 167.372H65.3172C31.0965 167.372 3.26172 195.193 3.26172 229.396C3.26172 263.59 31.0965 291.42 65.3172 291.42H114.637C116.204 291.42 117.743 291.566 119.237 291.841C131.688 291.566 144.149 291.291 156.6 291.026C156.509 288.187 155.794 276.658 146.604 267.445C133.869 254.652 116.204 257.72 114.646 258.013Z" fill="url(#paint0_linear_65_33)"/>
<path d="M330.481 167.472L190.455 167.372C176.308 167.372 164.801 155.87 164.801 141.731V92.5365C164.801 76.7581 177.646 63.9101 193.442 63.9101C209.228 63.9101 222.083 76.749 222.083 92.5365V117.28C222.083 117.665 222.092 118.04 222.119 118.416L255.46 118.324C255.479 117.976 255.488 117.637 255.488 117.28V92.5365C255.488 58.3332 227.653 30.5127 193.432 30.5127C159.221 30.5127 131.377 58.3332 131.377 92.5365V141.731C131.377 174.286 157.874 200.769 190.436 200.769L330.471 200.87C346.258 200.87 359.112 213.718 359.112 229.496C359.112 245.284 346.267 258.123 330.471 258.123H281.252C263.395 258.251 245.538 258.379 227.672 258.507C227.745 269.615 227.827 280.723 227.901 291.841H277.23C278.54 291.63 279.878 291.52 281.243 291.52H330.462C364.674 291.52 392.518 263.7 392.518 229.496C392.518 195.293 364.683 167.472 330.481 167.472Z" fill="url(#paint1_linear_65_33)"/>
<path d="M457.733 304.341H348.438V193.865C348.438 191.594 350.279 189.753 352.551 189.753H453.619C455.892 189.753 457.733 191.594 457.733 193.865V304.341V304.341Z" fill="#FC6964"/>
<path d="M432.905 304.341H320.943V193.865C320.943 191.594 322.785 189.753 325.057 189.753H428.791C431.064 189.753 432.905 191.594 432.905 193.865V304.341Z" fill="#B3D2F8"/>
<path d="M142.565 291.557H75.4975C74.0315 291.557 72.8496 290.376 72.8496 288.911V245.971H142.574V291.557H142.565Z" fill="#FBDDD0"/>
<path d="M185.252 287.821C171.032 289.176 156.821 290.54 142.602 291.896V246.31C156.95 246.63 171.298 246.96 185.646 247.28C185.517 260.797 185.389 274.304 185.252 287.821Z" fill="#FC6964"/>
<path d="M185.69 169.221C186.222 170.403 187.184 171.438 187.294 172.72C187.376 173.626 187.01 174.524 186.515 175.293C185.974 176.126 185.214 176.877 184.261 177.17C183.308 177.454 182.135 177.17 181.604 176.328C181.256 175.769 181.228 175.082 181.201 174.423C181.146 172.839 181.1 171.264 181.045 169.679C181.036 169.487 181.036 169.286 181.109 169.112C181.173 168.956 181.302 168.837 181.43 168.718C182.062 168.113 182.694 167.509 183.327 166.905C183.757 166.493 184.747 165.339 185.379 165.467C185.214 166.786 185.122 167.967 185.69 169.221Z" fill="black"/>
<path d="M185.095 249.432C170.876 250.788 156.665 252.152 142.445 253.507V207.921C156.793 208.242 171.141 208.572 185.489 208.892C185.361 222.409 185.233 235.925 185.095 249.432Z" fill="#FC6964"/>
<path d="M146.852 249.918C145.899 251.841 143.893 252.986 141.84 252.793C139.055 252.537 137.782 249.982 137.727 249.863C137.04 251.63 135.381 252.821 133.521 252.894C131.515 252.977 129.655 251.731 128.922 249.808C128.885 249.927 128.006 252.317 125.697 252.793C123.69 253.206 121.482 251.969 120.621 249.762C119.732 251.612 117.909 252.839 115.902 252.94C113.676 253.05 111.559 251.768 110.588 249.698C109.892 251.63 108.142 252.967 106.154 253.086C103.946 253.224 101.848 251.814 101.087 249.643C100.601 251.676 98.9431 253.178 97.0007 253.38C94.7102 253.618 92.4563 252.024 91.8699 249.588C91.2469 251.695 89.3778 253.178 87.243 253.279C84.925 253.389 82.781 251.832 82.1213 249.524C81.3792 251.621 79.4002 253.05 77.1921 253.077C74.9107 253.105 72.8492 251.649 72.1071 249.469C71.1909 251.356 69.3126 252.601 67.2511 252.684C64.9972 252.775 62.8807 251.484 61.9004 249.405C70.6869 235.559 79.4643 221.713 88.2508 207.867C114.849 208.206 141.437 208.544 168.035 208.883C160.971 222.574 153.907 236.246 146.852 249.918Z" fill="#B3D2F8"/>
<path d="M323.801 190.385H349.006V206.603H321.07V192.876C321.07 191.502 322.298 190.385 323.801 190.385Z" stroke="white" stroke-miterlimit="10"/>
<path d="M376.951 190.385H349.016V206.603H376.951V190.385Z" stroke="white" stroke-miterlimit="10"/>
<path d="M404.887 190.385H376.951V206.603H404.887V190.385Z" stroke="white" stroke-miterlimit="10"/>
<path d="M404.887 190.385H429.799C431.466 190.385 432.822 191.621 432.822 193.141V206.594H404.887V190.385Z" stroke="white" stroke-miterlimit="10"/>
<path d="M349.006 206.603H321.07V222.82H349.006V206.603Z" stroke="white" stroke-miterlimit="10"/>
<path d="M376.951 206.603H349.016V222.82H376.951V206.603Z" stroke="white" stroke-miterlimit="10"/>
<path d="M404.887 206.603H376.951V222.82H404.887V206.603Z" stroke="white" stroke-miterlimit="10"/>
<path d="M432.822 206.603H404.887V222.82H432.822V206.603Z" stroke="white" stroke-miterlimit="10"/>
<path d="M349.006 222.812H321.07V239.029H349.006V222.812Z" stroke="white" stroke-miterlimit="10"/>
<path d="M376.951 222.812H349.016V239.029H376.951V222.812Z" stroke="white" stroke-miterlimit="10"/>
<path d="M404.887 222.812H376.951V239.029H404.887V222.812Z" stroke="white" stroke-miterlimit="10"/>
<path d="M432.822 222.812H404.887V239.029H432.822V222.812Z" stroke="white" stroke-miterlimit="10"/>
<path d="M349.006 239.029H321.07V255.247H349.006V239.029Z" stroke="white" stroke-miterlimit="10"/>
<path d="M376.951 239.029H349.016V255.247H376.951V239.029Z" stroke="white" stroke-miterlimit="10"/>
<path d="M404.887 239.029H376.951V255.247H404.887V239.029Z" stroke="white" stroke-miterlimit="10"/>
<path d="M432.822 239.029H404.887V255.247H432.822V239.029Z" stroke="white" stroke-miterlimit="10"/>
<path d="M349.006 255.248H321.07V271.466H349.006V255.248Z" stroke="white" stroke-miterlimit="10"/>
<path d="M376.951 255.248H349.016V271.466H376.951V255.248Z" stroke="white" stroke-miterlimit="10"/>
<path d="M404.887 255.248H376.951V271.466H404.887V255.248Z" stroke="white" stroke-miterlimit="10"/>
<path d="M432.822 255.248H404.887V271.466H432.822V255.248Z" stroke="white" stroke-miterlimit="10"/>
<path d="M349.006 271.456H321.07V287.674H349.006V271.456Z" stroke="white" stroke-miterlimit="10"/>
<path d="M376.951 271.456H349.016V287.674H376.951V271.456Z" stroke="white" stroke-miterlimit="10"/>
<path d="M404.887 271.456H376.951V287.674H404.887V271.456Z" stroke="white" stroke-miterlimit="10"/>
<path d="M432.822 271.456H404.887V287.674H432.822V271.456Z" stroke="white" stroke-miterlimit="10"/>
<path d="M349.006 287.674H321.07V303.892H349.006V287.674Z" stroke="white" stroke-miterlimit="10"/>
<path d="M376.951 287.674H349.016V303.892H376.951V287.674Z" stroke="white" stroke-miterlimit="10"/>
<path d="M404.887 287.674H376.951V303.892H404.887V287.674Z" stroke="white" stroke-miterlimit="10"/>
<path d="M432.822 287.674H404.887V303.892H432.822V287.674Z" stroke="white" stroke-miterlimit="10"/>
<path d="M72.2441 249.525L96.6614 208.572" stroke="#F7F1FD" stroke-miterlimit="10" stroke-linecap="round"/>
<path d="M82.0391 249.579L106.456 208.627" stroke="#F7F1FD" stroke-miterlimit="10" stroke-linecap="round"/>
<path d="M91.832 249.634L116.24 208.682" stroke="#F7F1FD" stroke-miterlimit="10" stroke-linecap="round"/>
<path d="M101.627 249.689L126.035 208.737" stroke="#F7F1FD" stroke-miterlimit="10" stroke-linecap="round"/>
<path d="M110.652 250.028L135.07 209.084" stroke="#F7F1FD" stroke-miterlimit="10" stroke-linecap="round"/>
<path d="M120.914 250.211L145.331 209.259" stroke="#F7F1FD" stroke-miterlimit="10" stroke-linecap="round"/>
<path d="M129.334 249.405L153.742 208.462" stroke="#F7F1FD" stroke-miterlimit="10" stroke-linecap="round"/>
<path d="M138.111 249.551L162.519 208.599" stroke="#F7F1FD" stroke-miterlimit="10" stroke-linecap="round"/>
<path d="M397.127 306.493C401.322 306.493 404.722 303.094 404.722 298.902C404.722 294.709 401.322 291.31 397.127 291.31C392.932 291.31 389.531 294.709 389.531 298.902C389.531 303.094 392.932 306.493 397.127 306.493Z" fill="white"/>
<path d="M428.525 306.493C433.949 306.493 438.347 302.098 438.347 296.676C438.347 291.255 433.949 286.859 428.525 286.859C423.101 286.859 418.703 291.255 418.703 296.676C418.703 302.098 423.101 306.493 428.525 306.493Z" fill="white"/>
<path d="M433.289 306.493C438.713 306.493 443.111 302.098 443.111 296.676C443.111 291.255 438.713 286.859 433.289 286.859C427.864 286.859 423.467 291.255 423.467 296.676C423.467 302.098 427.864 306.493 433.289 306.493Z" fill="white"/>
<path d="M460.904 306.493C465.099 306.493 468.499 303.094 468.499 298.902C468.499 294.709 465.099 291.31 460.904 291.31C456.709 291.31 453.309 294.709 453.309 298.902C453.309 303.094 456.709 306.493 460.904 306.493Z" fill="white"/>
<path d="M464.588 306.493C468.783 306.493 472.183 303.094 472.183 298.902C472.183 294.709 468.783 291.31 464.588 291.31C460.393 291.31 456.992 294.709 456.992 298.902C456.992 303.094 460.393 306.493 464.588 306.493Z" fill="white"/>
<path d="M491.277 306.493C496.701 306.493 501.099 302.098 501.099 296.676C501.099 291.255 496.701 286.859 491.277 286.859C485.852 286.859 481.455 291.255 481.455 296.676C481.455 302.098 485.852 306.493 491.277 306.493Z" fill="white"/>
<path d="M496.041 306.493C501.465 306.493 505.862 302.098 505.862 296.676C505.862 291.255 501.465 286.859 496.041 286.859C490.616 286.859 486.219 291.255 486.219 296.676C486.219 302.098 490.616 306.493 496.041 306.493Z" fill="white"/>
<path d="M400.81 306.493C405.005 306.493 408.406 303.094 408.406 298.902C408.406 294.709 405.005 291.31 400.81 291.31C396.615 291.31 393.215 294.709 393.215 298.902C393.215 303.094 396.615 306.493 400.81 306.493Z" fill="white"/>
<path d="M380.497 291.52C380.46 285.513 380.424 279.506 380.378 273.498C382.302 272.262 384.226 271.035 386.159 269.799C388.624 269.378 391.088 268.947 393.553 268.526C397.52 261.136 401.487 253.737 405.455 246.346C405.464 246.237 405.61 244.79 406.838 244.149C407.525 243.792 408.194 243.874 408.46 243.92C409.651 243.92 410.851 243.92 412.042 243.92C412.931 242.189 413.811 240.458 414.699 238.718C446.51 238.718 478.312 238.718 510.123 238.718C510.123 258.379 510.123 278.031 510.123 297.693C507.906 297.693 505.689 297.693 503.472 297.693C503.508 296.878 503.582 293.096 500.75 290.193C500.164 289.588 498.524 287.912 495.977 287.638C492.459 287.262 489.353 289.79 487.969 292.409C487.081 294.085 486.943 295.705 486.943 296.667C472.174 296.667 457.404 296.667 442.626 296.667C442.186 292.116 439.437 288.361 435.635 287.125C432.3 286.044 429.368 287.299 428.644 287.638C423.101 290.22 422.533 296.887 422.505 297.18C408.084 297.18 393.663 297.18 379.232 297.189C379.232 295.797 379.232 294.414 379.232 293.022C379.645 292.876 380.057 292.729 380.478 292.583C380.497 292.235 380.497 291.878 380.497 291.52Z" fill="white"/>
<path opacity="0.2121" d="M470.505 267.867C458.045 267.802 445.593 267.738 433.133 267.683C436.367 261.557 439.592 255.431 442.826 249.313H470.505C470.505 255.495 470.505 261.685 470.505 267.867Z" fill="#D6C5DF"/>
<path opacity="0.2121" d="M476.096 267.867C485.514 267.784 494.942 267.702 504.361 267.628C504.169 261.52 503.967 255.412 503.775 249.313H476.096C476.096 255.495 476.096 261.685 476.096 267.867Z" fill="#D6C5DF"/>
<path d="M387.186 270.724C424.668 270.724 462.151 270.724 499.633 270.724" stroke="#B59AC8" stroke-miterlimit="10" stroke-linecap="round"/>
<path opacity="0.2121" d="M396.082 266.969C399.335 261.081 402.578 255.193 405.831 249.313C417.146 249.313 428.461 249.313 439.777 249.313C436.423 255.339 433.07 261.374 429.707 267.4C418.502 267.253 407.297 267.107 396.082 266.969Z" fill="#D6C5DF"/>
<path d="M406.682 246.191C418.162 246.09 429.642 245.98 441.122 245.879Z" fill="white"/>
<path d="M415.753 286.511H383.842C383.109 286.511 382.504 285.916 382.504 285.174V277.491C382.504 276.759 383.099 276.154 383.842 276.154H415.753C416.486 276.154 417.091 276.75 417.091 277.491V285.174C417.091 285.916 416.496 286.511 415.753 286.511Z" fill="white"/>
<path d="M380.679 298.38H420.929C421.717 298.38 422.358 297.739 422.358 296.951V294.076C422.358 293.288 421.717 292.647 420.929 292.647H380.679C379.891 292.647 379.25 293.288 379.25 294.076V296.951C379.25 297.739 379.891 298.38 380.679 298.38Z" fill="white"/>
<path d="M179.571 322.894C179.561 323.151 179.561 323.425 179.635 323.673C179.708 323.911 179.855 324.121 180.001 324.323C181 325.641 182.338 326.685 183.849 327.345C187.001 328.709 190.611 328.288 194.019 327.848C194.349 327.803 194.734 327.729 194.899 327.445C194.972 327.317 195 327.171 195.009 327.015C195.201 325.193 194.688 323.315 193.598 321.841C192.508 320.376 190.858 319.332 189.063 318.984C189.218 316.988 189.145 314.973 188.824 313.004C188.797 312.839 188.76 312.665 188.641 312.555C188.513 312.445 188.33 312.427 188.156 312.418C186.451 312.345 184.756 312.272 183.052 312.198C181.944 312.152 180.395 311.685 179.891 312.94C179.387 314.185 179.726 316.182 179.69 317.51C179.662 319.304 179.616 321.099 179.571 322.894Z" fill="#5F88D2"/>
<path d="M138.46 314.771C138.396 315.678 138.277 316.585 138.121 317.482C138.057 317.839 137.984 318.215 137.782 318.517C137.571 318.828 137.26 319.039 136.939 319.24C135.125 320.348 133.1 321.054 131.167 321.914C129.224 322.784 127.31 323.856 125.99 325.513C127.282 327.372 129.939 328.334 132.202 328.453C134.465 328.572 136.701 327.949 138.854 327.226C140.998 326.502 143.124 325.651 145.359 325.266C145.689 325.211 146.046 325.156 146.303 324.945C146.697 324.634 146.779 324.066 146.825 323.563C147.137 320.202 147.384 316.832 147.567 313.462C144.599 313.956 141.419 314.286 138.46 314.771Z" fill="#5F88D2"/>
<path d="M150.783 261.585C152.936 251.759 154.613 241.786 157.939 232.29C158.049 231.979 158.168 231.649 158.406 231.411C158.809 231.008 159.432 230.971 160 230.916C163.573 230.605 167.018 229.002 169.547 226.466C170.097 225.907 170.637 225.294 171.37 225.019C172.057 224.753 172.827 224.827 173.569 224.909C177.866 225.376 182.163 225.834 186.46 226.301C187.184 226.264 187.899 226.228 188.623 226.2C189.438 233.892 190.254 241.585 191.069 249.268C190.968 255.88 190.895 262.528 190.84 269.195C190.703 284.762 190.675 300.202 190.739 315.495C189.741 315.696 188.595 315.852 187.331 315.889C183.978 315.99 181.22 315.229 179.351 314.524C177.509 292.51 175.658 270.486 173.817 248.471C170.308 257.317 167.586 264.524 165.754 269.479C162.996 276.933 162.813 277.729 160.174 284.689C157.16 292.656 155.978 295.376 153.761 301.585C151.837 306.988 150.416 311.392 149.564 314.131C148.217 315.01 144.241 317.354 139.303 316.539C137.864 316.301 136.655 315.852 135.684 315.376C136.068 314.002 136.655 311.905 137.388 309.359C141.749 294.167 143.792 288.892 146.44 279.14C148.034 273.325 149.5 267.473 150.783 261.585Z" fill="#203765"/>
<path d="M189.192 196.082C189.274 194.241 189.641 192.666 187.341 192.776C185.71 192.849 184.043 193.215 182.403 193.545C183.282 188.307 183.96 183.023 184.427 177.73C184.446 177.529 184.464 177.318 184.427 177.116C184.345 176.649 183.997 176.292 183.658 175.953C183.365 175.66 183.145 175.395 183.016 175.459C182.925 175.505 182.934 175.697 182.934 175.77C182.98 177.565 182.577 179.735 182.778 180.807C182.787 180.871 182.824 181.036 182.751 181.228C182.659 181.475 182.439 181.594 182.403 181.622C181.532 182.355 180.946 183.417 180.781 184.543C180.469 183.774 180.451 182.922 180.359 182.098C180.268 181.274 180.075 180.404 179.507 179.809C178.838 179.104 177.803 178.911 176.887 178.609C175.641 178.197 174.486 177.519 173.524 176.631C173.314 176.43 173.103 176.219 172.966 175.963C172.801 175.67 172.727 175.331 172.681 174.992C172.617 174.507 172.59 174.021 172.617 173.536C172.287 173.472 171.939 173.646 171.71 173.893C171.481 174.14 171.335 174.461 171.197 174.763C171.032 175.138 170.611 175.56 170.776 175.944C171.179 176.906 171.829 177.739 172.416 178.609C174.276 181.375 175.503 184.497 176.713 187.602C177.418 189.415 178.133 191.228 178.838 193.041C178.976 193.398 179.113 193.756 179.26 194.113C175.623 194.708 171.93 195.203 168.302 194.607C167.377 198.948 166.506 203.453 165.709 208.133C164.665 214.278 163.831 220.212 163.189 225.88C169.658 224.058 173.964 224.681 176.759 225.651C179.104 226.466 182.027 228.627 185.499 227.748C186.727 227.437 187.652 226.86 188.248 226.42C188.385 224.333 188.587 221.21 188.825 217.391C189.091 213.224 189.219 211.127 189.256 210.468C189.897 196.86 189.073 198.902 189.192 196.082Z" fill="#FC6964"/>
<path d="M184.297 190.248C183.94 192.171 183.583 194.113 182.877 195.944C182.502 196.924 182.025 197.867 181.805 198.893C181.64 199.635 181.622 200.395 181.595 201.155C181.338 208.966 181.091 216.787 181.1 224.607C181.1 228.233 181.182 231.951 182.474 235.34C183.766 238.728 186.533 241.777 190.106 242.418C189.951 240.541 189.795 238.673 189.648 236.796C189.117 230.385 188.604 223.847 190.06 217.574C189.932 221.768 189.795 225.972 189.666 230.166C192.296 229.094 195.246 230.367 197.793 231.613C199.076 227.748 197.903 223.554 197.83 219.488C197.784 217.226 198.087 214.983 198.087 212.721C198.087 209.781 197.592 206.869 197.097 203.966C195.961 197.281 194.816 190.578 193.057 184.03C192.809 183.096 192.525 182.144 191.893 181.411C191.352 180.788 190.601 180.404 189.868 180.028C188.567 179.36 187.174 178.417 185.782 178.014C185.25 179.744 185.571 182.116 185.342 183.975C185.067 186.091 184.682 188.169 184.297 190.248Z" fill="white"/>
<path d="M174.906 164.79C174.009 165.001 173.01 164.671 172.423 163.957C171.837 163.252 171.69 162.198 172.066 161.356C172.112 161.255 172.167 161.145 172.249 161.072C172.35 160.971 172.497 160.907 172.634 160.871C173.276 160.687 173.999 160.871 174.531 161.273C175.071 161.667 175.447 162.263 175.676 162.894C175.997 162.464 176.024 161.887 176.033 161.347C176.07 159.991 176.098 158.682 176.134 157.327C176.785 157.345 178.177 157.29 179.671 156.484C180.926 155.806 181.677 154.909 182.053 154.387C182.163 154.726 182.309 155.083 182.539 155.431C183.73 157.263 186.029 157.546 186.57 157.601C186.762 156.328 186.323 154.982 185.415 154.076C184.508 153.169 183.162 152.72 181.888 152.913C179.744 151.402 176.748 151.273 174.494 152.61C172.552 153.755 171.315 155.77 170.234 157.739C168.859 160.257 167.522 162.949 165.14 164.561C163.756 165.495 162.079 166.017 160.897 167.189C160.357 167.73 159.954 168.371 159.56 169.021C158.891 170.12 158.24 171.246 157.929 172.491C157.663 173.535 157.645 174.643 157.874 175.697C157.993 176.246 158.277 177.363 159.193 178.224C160.32 179.286 161.795 179.36 162.565 179.405C167.238 179.643 175.291 173.316 175.704 172.995" fill="black"/>
<path d="M172.607 164.351C173.569 164.607 174.577 164.689 175.566 164.589C175.603 165.385 175.639 166.182 175.676 166.979C175.704 167.547 175.768 168.197 176.217 168.545C176.574 168.829 177.069 168.829 177.518 168.819C179.02 168.783 180.532 168.71 182.035 168.581C182.126 168.572 182.227 168.563 182.31 168.591C182.612 168.682 182.667 169.085 182.667 169.406C182.639 171.319 182.649 173.233 182.685 175.138C182.694 175.569 182.804 176.127 183.226 176.2C183.015 177.473 182.969 178.774 183.079 180.056C183.116 180.459 183.171 180.889 183.024 181.274C182.786 181.915 182.09 182.244 181.586 182.702C181.063 183.178 180.724 183.847 180.633 184.543C180.486 183.801 180.34 183.059 180.193 182.318C180.065 181.686 179.909 180.99 179.387 180.605C178.865 180.221 178.159 180.266 177.536 180.12C177.032 180.001 176.565 179.754 176.116 179.515C175.42 179.14 174.714 178.765 174.119 178.252C173.468 177.684 172.973 176.97 172.57 176.21C172.094 175.33 172.13 174.808 172.204 173.81C172.341 171.768 172.442 169.717 172.515 167.675C172.524 167.382 172.735 164.378 172.607 164.351Z" fill="#F8D0E2"/>
<path d="M175.723 167.931C176.429 168.828 177.702 168.938 178.014 168.993C179.315 169.222 180.662 169.139 181.926 168.764C181.981 168.746 182.155 168.865 182.311 168.801C182.677 168.636 182.613 167.812 182.632 167.821C182.641 167.821 182.76 168.874 182.485 170.476C182.192 172.161 182.009 173.187 181.12 173.938C181.019 174.03 179.947 174.9 178.655 174.661C177.739 174.497 177.18 173.801 176.117 172.418C175.403 171.484 174.404 170.165 173.882 168.196C173.698 167.5 173.625 166.997 173.552 165.98C173.433 164.341 173.634 164.066 173.763 163.929C174.056 163.636 174.642 163.444 175.018 163.663C175.907 164.185 174.578 166.466 175.723 167.931Z" fill="#EBBCD5"/>
<path d="M176.071 156.979C176.337 158.874 176.126 160.843 175.457 162.638C175.247 161.915 174.834 161.219 174.165 160.853C173.506 160.486 172.58 160.559 172.104 161.136C171.747 161.576 171.701 162.19 171.71 162.757C171.719 163.151 171.756 163.545 171.902 163.902C172.159 164.525 172.773 164.964 173.442 165.074C174.101 165.184 174.798 164.992 175.347 164.607C175.421 165.367 175.485 166.127 175.558 166.896C175.604 167.391 175.659 167.904 175.915 168.325C176.172 168.746 176.74 169.113 177.198 168.939H183.309C184.226 168.939 185.05 168.197 185.554 167.428C186.186 166.475 186.278 165.266 186.324 164.122C186.415 161.924 186.443 159.717 186.388 157.519C185.682 157.418 184.675 157.171 183.703 156.53C182.952 156.036 182.622 155.578 182.521 155.44C182.247 155.047 182.109 154.662 182.036 154.396C181.578 154.763 181.046 155.129 180.432 155.477C178.802 156.402 177.235 156.796 176.071 156.979Z" fill="#F8D0E2"/>
<path d="M163.556 201.438C163.492 198.462 163.107 196.017 162.777 194.359C161.137 196.356 159.488 198.352 157.573 200.083C157.261 200.367 156.931 200.651 156.757 201.035C156.574 201.42 156.776 201.814 157.051 202.134C160.23 205.861 162.704 210.129 165.828 213.902C162.639 214.314 159.763 216.429 158.434 219.359C154.916 212.94 145.167 208.068 148.09 200.266C150.041 192.473 154.916 186.621 159.79 179.808C161.742 178.837 164.664 178.837 166.662 177.537C168.265 178.627 169.603 179.68 171.197 180.77C171.866 181.228 172.544 181.695 173.029 182.345C173.634 183.16 173.881 184.176 174.111 185.156C174.697 187.693 175.485 189.918 177.29 193.975C178.719 197.189 179.067 196.823 179.58 198.636C180.213 200.87 180.13 202.968 179.58 205.962C178.737 210.541 177.482 213.618 174.12 222.125C171.802 227.986 171.838 227.94 171.701 228.178C168.485 233.508 162.136 235.907 156.253 237.94C157.417 230.321 158.91 224.231 160.111 219.936C161.879 213.563 163.711 208.682 163.556 201.438Z" fill="white"/>
<path d="M191.565 226.814C191.262 229.277 190.438 231.686 189.164 233.819C188.981 234.122 188.825 234.57 189.128 234.754C189.228 234.818 189.347 234.818 189.457 234.808C190.713 234.68 191.097 232.867 192.289 232.437C191.922 234.836 190.905 237.134 189.366 239.012C191.235 240.422 194.093 240.028 195.816 238.444C197.529 236.851 198.171 234.323 197.841 232.006C197.768 231.484 197.639 230.962 197.337 230.532C197.062 230.147 196.668 229.873 196.265 229.634C194.854 228.81 193.223 228.371 191.592 228.389" fill="#F8D0E2"/>
<path d="M180.369 158.49C180.24 158.389 180.085 158.325 179.929 158.279C179.791 158.243 179.654 158.206 179.516 158.206C179.26 158.215 179.031 158.334 178.811 158.453C178.527 158.609 178.252 158.774 177.986 158.948C177.986 158.948 179.507 158.939 179.654 158.939C179.947 158.948 181.028 159.03 180.369 158.49Z" fill="black"/>
<path d="M185.609 158.938C185.408 158.609 185.041 158.398 184.656 158.343C184.271 158.288 183.878 158.398 183.548 158.6C183.364 158.709 183.19 158.856 183.145 159.067C183.254 159.021 183.328 159.039 183.447 159.039C184.134 159.021 184.913 158.957 185.609 158.938Z" fill="black"/>
<path opacity="0.2121" d="M190.594 199.341C190.703 195.477 190.813 191.603 190.923 187.739C191.427 193.078 191.363 198.453 191.299 203.819C191.272 205.907 191.244 208.004 191.125 210.092C191.024 211.851 190.933 212.711 190.859 213.261C190.594 215.349 190.2 217.052 189.879 218.224C190.016 215.926 190.218 212.308 190.374 207.821C190.465 205.01 190.474 203.389 190.594 199.341Z" fill="#D6C5DF"/>
<path d="M178.892 160.467C178.809 160.769 178.828 161.09 178.928 161.383C178.974 161.529 179.075 161.685 179.222 161.694C179.405 161.703 179.524 161.511 179.57 161.337C179.671 161.007 179.716 160.504 179.496 160.211C179.267 159.89 178.974 160.156 178.892 160.467Z" fill="black"/>
<path d="M184.142 161.173C184.151 161.301 184.161 161.429 184.216 161.539C184.271 161.649 184.38 161.75 184.509 161.75C184.628 161.75 184.738 161.658 184.793 161.549C184.848 161.439 184.866 161.31 184.875 161.191C184.903 160.917 184.949 160.166 184.536 160.111C184.087 160.047 184.124 160.908 184.142 161.173Z" fill="black"/>
<path opacity="0.9115" d="M159.359 217.72C160.166 218.352 160.963 219.167 161.641 220.202C161.714 220.312 161.778 220.413 161.842 220.523C163.528 219.68 165.214 218.828 166.909 217.986C166.735 217.638 166.002 216.246 165.251 215.074C164.82 214.396 164.499 213.975 164.334 213.773C164.142 213.526 163.968 213.325 163.84 213.178C163.546 213.435 163.153 213.792 162.694 214.222C162.145 214.744 161.742 215.165 161.393 215.523C160.862 216.072 160.459 216.512 160.266 216.722C159.909 217.088 159.607 217.436 159.359 217.72Z" fill="#F8D0E2"/>
<path opacity="0.2121" d="M165.992 218.627C166.973 218.169 167.971 217.702 168.75 216.96C167.266 217.785 165.708 218.609 164.086 219.424C162.905 220.019 161.732 220.578 160.596 221.109C161.448 220.99 162.474 220.275 163.271 219.909C164.178 219.479 165.085 219.048 165.992 218.627Z" fill="#D6C5DF"/>
<path d="M177.628 244.057C177.509 244.744 177.334 245.504 176.748 245.88C176.327 246.145 175.795 246.145 175.31 246.264C174.824 246.383 174.311 246.75 174.348 247.253C175.172 246.896 175.997 246.539 176.821 246.182C177.078 246.072 177.353 245.944 177.527 245.724C177.738 245.459 177.783 245.175 177.793 245.092C178.049 243.526 181.503 237.501 181.183 228.92C181.164 228.325 181.109 227.409 180.972 226.283C180.266 227.281 180.285 229.323 180.065 230.541C179.799 232.043 179.524 233.545 179.259 235.046C178.709 238.05 178.168 241.054 177.628 244.057Z" fill="#203765"/>
<path opacity="0.2121" d="M185.461 188.828C185.379 188.965 185.232 189.075 185.058 189.405C184.774 189.964 184.884 190.202 184.637 190.815C184.509 191.127 184.371 191.328 184.096 191.713C183.776 192.161 183.482 192.491 183.382 192.601C183.363 192.628 183.345 192.638 183.345 192.638C182.777 193.233 180.596 203.489 181.604 203.608C181.888 203.645 181.934 202.784 183.675 198.737C184.124 197.693 184.747 196.356 185.984 193.737C186.753 192.097 187.789 189.89 189.044 187.271C187.972 186.246 186.9 185.22 185.828 184.204C186.552 184.286 187.266 184.368 187.99 184.451C187.331 179.13 187.065 177.656 186.964 177.665C186.854 177.674 187.404 179.634 186.35 181.099C185.223 182.665 183.382 182.189 183.015 183.279C182.447 184.927 186.194 187.61 185.461 188.828Z" fill="#D6C5DF"/>
<path d="M182.053 159.405C182.191 160.138 182.319 160.907 182.42 161.722C182.521 162.501 182.594 163.251 182.649 163.966C181.989 164.021 181.33 164.076 180.67 164.131" fill="#EBBCD5"/>
<path d="M183.529 164.332C183.318 164.799 182.888 165.138 182.411 165.312C181.935 165.486 181.413 165.532 180.909 165.532C180.405 165.532 180.011 165.532 179.543 165.349C179.003 165.138 178.646 164.808 178.453 164.598C179.131 164.552 179.809 164.515 180.487 164.479C181.504 164.424 182.521 164.378 183.529 164.332Z" fill="white"/>
<path opacity="0.2121" d="M154.548 199.946C153.843 199.982 153.137 200.202 152.578 200.623C153 200.522 153.613 200.44 154.356 200.522C155.464 200.651 156.27 201.109 156.692 201.383C156.692 201.292 156.701 201.154 156.756 200.999C156.839 200.779 156.967 200.642 157.04 200.577C156.811 200.422 156.5 200.248 156.106 200.12C155.418 199.891 154.86 199.927 154.548 199.946Z" fill="#D6C5DF"/>
<path opacity="0.2121" d="M163.538 200.999C163.831 201.044 165.141 197.244 164.646 192.876C164.61 192.537 164.564 192.262 164.536 192.052C163.95 192.812 163.364 193.563 162.777 194.323C162.86 194.68 162.97 195.193 163.071 195.806C163.144 196.237 163.281 197.098 163.391 198.535C163.538 200.541 163.446 200.98 163.538 200.999Z" fill="#D6C5DF"/>
<path opacity="0.2121" d="M171.04 188.069C171.16 188.179 171.334 188.234 171.599 188.499C172.039 188.939 172.003 189.213 172.424 189.708C172.644 189.964 172.836 190.111 173.212 190.404C173.734 190.798 174.165 191.027 174.22 191.054C175.493 191.759 180.441 200.807 179.745 201.137C179.36 201.32 178.187 198.444 173.194 191.704C171.416 189.305 169.859 187.373 168.787 186.072C169.593 184.8 170.399 183.518 171.205 182.245C169.914 183.243 168.631 184.241 167.339 185.239C166.304 179.534 166.102 177.913 166.203 177.895C166.313 177.867 166.386 179.9 167.834 180.972C169.382 182.116 170.995 181.109 171.673 182.034C172.726 183.435 169.969 187.144 171.04 188.069Z" fill="#D6C5DF"/>
<path d="M178.48 191.099C178.104 189.68 176.941 185.275 175.09 182.711C174.952 182.528 174.247 181.557 173.358 180.22C172.873 179.487 172.332 178.627 171.746 177.647C171.315 176.923 170.985 176.328 170.774 175.962C170.435 175.907 170.06 175.879 169.657 175.888C167.971 175.925 166.67 176.63 165.955 177.116C166.34 179.634 166.917 182.116 167.659 184.542C168.731 183.572 169.931 182.738 171.214 182.07C170.445 183.352 169.675 184.634 168.905 185.916C170.481 187.509 172.167 189.423 173.816 191.694C176.812 195.815 178.736 199.79 180.001 203.031C179.992 197.903 179.194 193.837 178.48 191.099Z" fill="white"/>
<path d="M181.412 199.781C181.503 200.211 181.577 200.688 181.632 201.191C181.723 202.034 181.732 202.803 181.705 203.481C186.075 192.483 188.036 187.757 188.274 187.455C188.302 187.428 188.503 187.208 188.467 186.942C188.448 186.805 188.357 186.695 188.274 186.594C187.578 185.733 186.854 184.891 186.103 184.076C186.707 184.222 187.34 184.232 187.944 184.094C187.605 182.473 187.257 180.843 186.918 179.222C186.808 178.71 186.698 178.179 186.405 177.748C186.313 177.611 185.993 177.171 185.406 176.832C184.866 176.512 184.353 176.439 184.078 176.411C183.18 183.957 182.273 191.503 181.375 199.048" fill="white"/>
<path d="M182.283 278.517C183.263 290.019 183.4 301.594 182.695 313.114C181.953 312.885 181.146 312.858 180.386 313.013C177.711 299.945 178.059 286.493 177.775 273.16C177.72 270.394 177.628 267.629 177.317 264.872C177.005 262.18 176.483 259.524 175.951 256.869C175.686 255.522 174.321 252.107 175.722 251.154C178.279 254.744 179.396 260.147 180.313 264.396C181.293 268.911 182.283 273.883 182.283 278.517Z" fill="#203765"/>
<path d="M160.917 276.438C161.906 272.986 162.832 269.497 164.151 266.154C166.423 260.385 169.795 255.129 173.157 249.918C170.216 256.942 167.266 263.966 164.325 270.989C163.253 273.544 162.181 276.099 161.228 278.709C159.671 282.995 158.443 287.39 157.078 291.74C156.015 295.101 154.87 298.434 153.642 301.74C152.561 304.625 151.571 309.039 149.611 311.328C148.099 310.348 154.329 296.887 155.099 294.716C157.224 288.682 159.167 282.583 160.917 276.438Z" fill="#203765"/>
<path d="M186.176 188.307C186.369 187.574 186.479 186.814 186.479 186.054C186.479 185.587 186.442 185.092 186.204 184.68C185.709 183.82 184.609 183.453 183.675 183.719C182.979 183.911 182.456 184.516 182.163 185.175C181.87 185.834 181.788 186.567 181.705 187.281" stroke="#231F20" stroke-width="0.5" stroke-miterlimit="10"/>
<path d="M184.536 183.865C184.545 181.557 184.545 179.222 183.941 176.997C183.748 176.282 183.409 175.504 182.713 175.257" stroke="#231F20" stroke-width="0.5" stroke-miterlimit="10"/>
<path opacity="0.2121" d="M176.968 189.149C177.97 189.149 178.783 188.337 178.783 187.336C178.783 186.334 177.97 185.522 176.968 185.522C175.966 185.522 175.154 186.334 175.154 187.336C175.154 188.337 175.966 189.149 176.968 189.149Z" fill="#D6C5DF"/>
<path d="M172.15 173.242C171.673 174.057 171.417 174.826 171.27 175.495C170.088 180.98 175.558 185.88 176.218 186.456" stroke="#231F20" stroke-width="0.5" stroke-miterlimit="10"/>
<path d="M177.38 188.618C178.19 188.618 178.846 187.962 178.846 187.153C178.846 186.343 178.19 185.688 177.38 185.688C176.57 185.688 175.914 186.343 175.914 187.153C175.914 187.962 176.57 188.618 177.38 188.618Z" fill="white" stroke="#231F20" stroke-width="0.5" stroke-miterlimit="10"/>
<path d="M217.421 169.432C217.448 169.148 217.476 168.864 217.494 168.58C217.457 170.22 217.421 171.859 217.375 173.498C217.549 173.718 217.705 173.956 217.861 174.194C218.355 174.945 218.887 175.678 219.565 176.273C220.243 176.868 221.067 177.317 221.956 177.417C222.112 177.436 222.286 177.445 222.414 177.537C222.524 177.619 222.588 177.738 222.643 177.866C222.872 178.397 222.955 178.983 223.12 179.533C223.285 180.091 223.559 180.65 224.054 180.952C224.631 179.835 224.943 178.58 224.97 177.317C225.639 176.923 226.308 176.52 226.885 176.007C227.463 175.485 227.948 174.835 228.131 174.084C228.241 173.635 228.251 173.159 228.251 172.701C228.278 169.762 228.306 166.813 228.049 163.892C228.012 163.443 227.957 162.976 227.71 162.601C226.757 163.956 225.768 165.32 224.494 166.383C222.552 167.985 219.977 168.782 217.476 168.571" fill="#F8D0E2"/>
<path d="M224.768 167.976C224.062 168.873 222.789 168.983 222.477 169.038C221.176 169.267 219.83 169.184 218.565 168.809C218.51 168.791 218.336 168.91 218.18 168.846C217.814 168.681 217.878 167.857 217.86 167.866C217.85 167.866 217.731 168.919 218.006 170.521C218.299 172.206 218.483 173.232 219.371 173.983C219.472 174.074 220.544 174.944 221.836 174.706C222.294 174.624 222.725 174.404 224.374 172.463C226.591 169.853 227.132 168.699 227.343 168.195C227.544 167.728 227.746 167.252 227.901 166.565C228.341 164.587 227.929 162.683 227.599 162.664C227.306 162.646 226.985 164.084 226.774 164.029C226.747 164.02 226.738 163.983 226.719 163.974C226.426 163.681 225.84 163.488 225.464 163.708C224.594 164.23 225.922 166.52 224.768 167.976Z" fill="#EBBCD5"/>
<path d="M215.973 154.625C215.9 155.321 215.872 155.678 215.625 155.934C215.359 156.218 214.91 156.355 214.8 156.722C214.764 156.841 214.764 156.969 214.773 157.097C214.855 160.092 214.718 163.105 215.148 166.062C215.258 166.804 215.405 167.555 215.79 168.196C216.174 168.837 216.843 169.396 217.585 169.414H224.824C225.575 169.414 226.253 168.91 226.757 168.352C227.581 167.427 227.737 166.108 227.81 164.881C227.93 162.995 227.939 161.099 227.856 159.213C227.343 158.883 226.876 158.48 226.464 158.031C226.601 156.209 226.555 154.368 226.317 152.546C225.721 152.931 225.043 153.187 224.338 153.297C223.715 153.398 223.083 153.379 222.46 153.361C221.076 153.324 219.693 153.297 218.309 153.242C217.787 153.224 216.972 153.196 215.955 153.169C216.037 153.773 216.01 154.286 215.973 154.625Z" fill="#F8D0E2"/>
<path d="M224.338 156.447C224.567 156.52 224.796 156.639 224.897 156.859C224.659 156.84 224.412 156.831 224.173 156.813C223.981 156.804 223.789 156.795 223.605 156.804C223.294 156.831 222.982 156.932 222.717 157.106C222.625 157.161 222.542 157.225 222.442 157.253C222.203 157.317 221.892 157.17 221.764 156.969C222.304 156.291 223.559 156.19 224.338 156.447Z" fill="black"/>
<path d="M218.52 156.639C218.336 156.465 218.089 156.392 217.842 156.373C217.2 156.309 216.531 156.584 216.119 157.088C216.33 156.84 217.622 157.06 217.906 157.106C218.043 157.134 218.529 157.326 218.657 157.225C218.831 157.079 218.648 156.767 218.52 156.639Z" fill="black"/>
<path d="M222.77 159.78C222.797 159.954 222.834 160.137 222.944 160.274C223.054 160.412 223.255 160.494 223.411 160.412C223.53 160.348 223.594 160.219 223.631 160.091C223.75 159.725 223.768 159.322 223.686 158.947C223.603 158.562 223.237 158.058 222.898 158.47C222.632 158.782 222.715 159.404 222.77 159.78Z" fill="black"/>
<path d="M217.246 159.313C217.209 159.615 217.264 159.917 217.329 160.211C217.365 160.348 217.411 160.504 217.539 160.559C217.649 160.613 217.787 160.559 217.878 160.476C217.961 160.385 218.007 160.265 218.043 160.146C218.144 159.798 218.254 159.075 217.988 158.773C217.622 158.352 217.292 158.947 217.246 159.313Z" fill="black"/>
<path d="M217.474 163.892C216.833 164.331 216.384 165.165 216.632 165.897C219.261 165.851 221.9 165.659 224.502 165.32C224.685 164.862 224.484 164.331 224.126 163.993C223.769 163.654 223.292 163.489 222.825 163.351C221.185 162.903 218.94 162.884 217.474 163.892Z" fill="black"/>
<path d="M208.038 315.44C209.01 315.495 209.908 315.54 210.732 315.577C215.652 315.824 216.981 315.815 218.557 315.266C219.143 315.055 219.894 314.725 220.728 314.185C220.957 313.013 221.333 310.989 221.69 308.452C222.542 302.335 222.606 297.656 222.67 296.117C223.028 287.491 223.953 249.396 224.613 249.387C225.08 249.377 225.3 268.755 227.343 297.93C227.783 304.158 228.195 309.405 228.525 313.233C230.083 313.865 231.448 314.103 232.41 314.203C233.06 314.267 235.608 314.487 238.677 313.443C239.877 313.031 240.821 312.546 241.48 312.161C241.416 302.207 241.426 292.134 241.508 281.951C241.645 265.504 241.975 249.332 242.479 233.471C240.317 234.112 237.394 234.844 233.903 235.376C232.153 235.641 228.562 236.181 224.686 236.09C221.369 236.007 215.735 235.412 208.955 232.28C208.909 236.52 208.826 242.821 208.607 250.495C208.396 257.949 208.268 258.883 208.066 265.843C207.507 285.376 207.562 296.548 207.562 296.548C207.599 301.31 207.709 307.747 208.038 315.44Z" fill="#203765"/>
<path d="M213.644 153.049C214.221 152.775 214.762 152.427 215.266 152.033C214.863 151.465 214.799 150.696 215 150.027C215.211 149.359 215.66 148.791 216.191 148.342C216.64 147.967 217.172 147.674 217.749 147.582C218.216 147.509 218.702 147.591 219.169 147.665C221.313 147.985 223.475 148.205 225.637 148.324C226.132 148.351 226.636 148.37 227.113 148.507C227.589 148.645 228.047 148.919 228.313 149.341C228.524 149.688 228.588 150.091 228.643 150.494C228.945 152.866 228.863 155.275 228.743 157.665C228.743 157.738 228.734 157.82 228.707 157.894C228.661 158.004 228.56 158.086 228.478 158.177C228.093 158.553 227.882 159.112 227.928 159.643C227.534 159.029 226.957 158.544 226.279 158.278C226.105 156.474 225.986 154.661 225.94 152.857C225.463 153.214 224.868 153.388 224.291 153.535C223.704 153.681 223.1 153.809 222.495 153.782C222.055 153.764 221.634 153.663 221.194 153.617C220.479 153.544 219.755 153.608 219.032 153.635C218.106 153.672 217.181 153.654 216.255 153.58C216.329 154.194 216.356 154.808 216.347 155.421C216.347 155.577 216.338 155.742 216.255 155.87C216.155 156.025 215.971 156.099 215.825 156.19C215.367 156.483 215.119 157.024 215.055 157.564C214.991 158.104 215.092 158.645 215.193 159.176C214.899 159.24 214.579 159.185 214.322 159.029C214.194 158.956 214.084 158.855 213.937 158.828C213.818 158.809 213.717 158.873 213.653 158.965C213.498 158.058 213.644 156.978 213.653 156.053C213.635 155.046 213.635 154.047 213.644 153.049Z" fill="black"/>
<path d="M228.076 158.013C228.388 157.637 228.938 157.436 229.35 157.674C229.707 157.885 229.845 158.333 229.936 158.746C230.092 159.46 230.165 160.192 230.055 160.907C229.945 161.621 229.625 162.326 229.093 162.793C228.58 163.242 227.911 163.452 227.27 163.645C227.307 161.987 226.913 159.396 228.076 158.013Z" fill="#F8D0E2"/>
<path d="M215.779 159.67C215.724 159.258 215.596 158.855 215.385 158.498C215.23 158.223 215.01 157.967 214.717 157.866C214.259 157.701 213.736 157.976 213.452 158.388C213.177 158.8 213.086 159.322 213.04 159.826C212.957 160.769 212.985 161.749 213.37 162.61C213.755 163.47 214.533 164.175 215.45 164.221C215.45 162.399 215.44 160.577 215.44 158.754" fill="#F8D0E2"/>
<path d="M214.451 190.815C213.654 205.943 213.379 221.09 213.617 236.236C220.305 237.234 227.14 237.234 233.829 236.227C233.856 229.103 233.078 221.987 233.847 214.899C234.168 211.932 234.314 208.956 234.287 205.971C234.232 199.78 233.417 193.608 233.536 187.418C233.582 185.119 233.746 182.821 233.554 180.54C233.462 179.487 233.297 178.425 232.922 177.436C232.116 175.275 230.421 173.571 228.781 171.941C228.332 173.123 227.489 174.744 225.904 176.09C225.592 176.355 225.281 176.584 224.978 176.786C224.951 177.299 224.887 177.848 224.786 178.434C224.584 179.579 224.282 180.568 223.961 181.383C223.347 180.22 222.733 179.057 222.11 177.894C221.909 177.619 221.707 177.335 221.506 177.06C221.203 176.896 220.892 176.712 220.58 176.502C218.675 175.229 217.493 173.571 216.76 172.244C215.559 173.205 214.442 174.167 213.241 175.128C213.003 175.321 212.756 175.513 212.609 175.778C212.453 176.053 212.408 176.374 212.371 176.685C211.895 181.438 214.698 186.053 214.451 190.815Z" fill="#B3D2F8"/>
<path opacity="0.9888" d="M246.94 244.514C246.848 244.872 246.958 245.366 246.756 245.751C246.683 245.879 246.537 246.08 246.216 246.264C245.813 246.492 244.558 246.996 242.78 247.646C241.855 247.985 240.847 247.344 240.764 246.364C240.27 240.586 239.912 236.547 239.848 236.071C239.839 235.989 239.784 235.677 239.949 235.412C240.041 235.265 240.187 235.174 240.334 235.082C241.58 234.313 242.872 233.562 244.283 233.159C247.416 232.271 245.987 233.791 247.251 239.927C247.572 241.456 247.334 243.003 246.94 244.514Z" fill="#F8D0E2"/>
<path d="M239.529 249.652C235.122 250.623 230.247 245.751 229.276 240.879C226.353 226.264 226.353 212.628 227.325 198.013C228.296 188.269 230.247 179.505 228.516 170.146C229.166 170.22 230.128 170.394 231.154 170.897C232.18 171.401 233.06 172.124 233.903 173.086C235.745 175.183 238.118 175.971 240.747 177.161C242.076 177.756 243.303 178.397 244.669 178.874C245.447 179.139 246.235 179.423 246.868 179.936C247.756 180.668 248.233 181.786 248.508 182.903C248.957 184.744 249.167 186.172 249.176 186.282C249.644 195.815 249.369 201.09 249.369 201.09C248.966 209.048 249.25 227.152 249.515 229.505C249.534 229.643 249.552 230.082 249.35 230.549C248.956 231.456 247.775 231.667 246.785 231.712C244.641 231.813 242.488 231.74 240.353 231.502C240.207 237.308 240.06 243.104 239.923 248.91C239.913 249.249 239.849 249.789 239.529 249.652Z" fill="white"/>
<path d="M193.104 203.755C194.149 203.69 195.193 203.755 196.238 203.819C197.374 203.892 198.483 203.965 199.619 204.029C199.39 204.936 199.243 205.87 199.197 206.804C199.179 207.17 199.179 207.546 199.17 207.912C199.161 209.24 199.179 210.577 199.371 211.896C199.609 213.516 200.132 215.082 200.48 216.685C200.489 216.74 200.498 216.804 200.471 216.85C200.443 216.896 200.361 216.896 200.333 216.841C198.611 216.575 196.852 216.603 195.111 216.438C193.37 216.264 191.602 215.87 190.182 214.863C189.494 214.377 188.908 213.764 188.377 213.104C187.754 212.335 187.186 211.429 187.186 210.44C187.186 209.89 187.35 209.359 187.525 208.846C189.366 203.196 191.483 197.637 193.856 192.189C194.222 191.346 194.607 190.495 195.12 189.725C195.551 189.093 195.88 188.452 196.274 187.802C198.043 184.853 199.747 181.877 201.405 178.874C201.497 178.709 201.589 178.544 201.726 178.425C201.827 178.342 201.946 178.288 202.065 178.233C204.795 176.996 207.681 176.145 210.558 175.311C211.355 175.073 212.162 174.844 212.959 174.606C213.096 174.57 213.243 174.524 213.334 174.414C213.49 174.24 213.454 173.984 213.518 173.764C213.628 173.388 213.994 173.169 214.333 172.985C215.387 172.408 215.854 171.987 216.706 171.676C216.99 171.575 217.228 171.502 217.393 171.456C217.384 171.777 217.366 172.299 217.347 172.93C217.128 182.418 218.374 189.496 218.749 191.795C221.837 210.962 218.255 235.586 218.621 238.919C218.713 239.78 218.813 240.668 218.539 241.493C218.401 241.914 218.172 242.299 217.925 242.674C215.488 246.438 211.759 249.341 207.516 250.788C207.48 249.277 207.425 246.822 207.333 243.782C207.013 232.564 206.738 223.407 205.84 212.28C205.647 209.872 205.327 206.218 204.85 201.74C203.513 201.832 202.468 202.06 201.781 202.234C200.022 202.692 199.637 203.123 197.466 203.636C195.908 204.029 194.662 204.148 193.104 203.755Z" fill="white"/>
<path opacity="0.2121" d="M205.234 193.736C205.078 191.291 204.877 188.855 204.648 186.419C204.162 188.434 203.677 190.458 203.182 192.473C202.852 193.828 202.522 195.192 202.412 196.584C202.321 197.683 203.292 200.284 204.895 199.249C206.05 198.498 205.307 194.918 205.234 193.736Z" fill="#D6C5DF"/>
<path d="M202.952 213.443C204.162 214.807 205.985 215.604 207.808 215.558C209.054 215.531 210.254 215.137 211.427 214.725C213.956 213.846 216.457 212.903 218.931 211.877C219.215 211.758 219.527 211.62 219.664 211.346C219.765 211.153 219.765 210.934 219.765 210.714C219.774 208.342 219.362 206.007 219.288 203.644C219.169 199.789 218.711 195.787 218.216 191.959C214.066 193.617 209.778 194.945 205.408 195.925C205.114 195.989 204.812 196.053 204.519 195.989C204.226 195.925 203.758 195.577 203.749 195.284C199.434 192.426 195.531 189.038 191.729 185.531C193.387 192.692 195.045 199.853 196.713 207.014" fill="#203765"/>
<path opacity="0.9115" d="M208.744 206.575C211.42 205.705 212.721 205.22 213.133 204.963C213.224 204.908 213.6 204.67 213.838 204.808C213.93 204.863 213.967 204.954 213.994 205.009C213.857 205.394 213.563 206.007 212.968 206.538C212.51 206.951 212.061 207.125 211.319 207.418C210.815 207.619 210.082 207.857 209.156 208.031" fill="#F8D0E2"/>
<path opacity="0.9115" d="M209.191 207.903C210.492 207.784 211.335 207.381 211.876 207.024C212.087 206.886 213.406 205.97 213.763 206.117C213.864 206.154 213.91 206.236 213.91 206.236C213.992 206.373 213.882 206.575 213.846 206.648C213.397 207.463 211.949 208.187 211.949 208.187C211.015 208.654 210.245 209.02 209.695 209.276" fill="#F8D0E2"/>
<path opacity="0.9115" d="M209.687 209.258C210.255 209.02 210.888 208.736 211.547 208.37C212.244 207.985 212.848 207.582 213.371 207.207C212.344 209.176 211.016 210.137 210.329 210.559C208.771 211.511 207.159 211.712 205.482 211.932C204.492 212.06 203.659 212.088 203.063 212.088C203.017 210.275 202.852 208.461 202.559 206.667C202.532 206.511 202.513 206.355 202.559 206.209C202.907 206.209 203.32 206.099 203.659 206.007C203.714 205.989 203.778 205.971 203.805 205.925C203.833 205.879 203.824 205.824 203.824 205.778C203.695 204.798 203.576 203.809 203.448 202.83C203.393 202.399 203.338 201.96 203.347 201.529C203.347 201.428 203.375 201.3 203.466 201.264C203.558 201.227 203.659 201.291 203.732 201.355C204.822 202.289 205.574 203.544 206.325 204.762C206.398 204.872 206.471 204.991 206.581 205.064C206.755 205.183 206.984 205.165 207.195 205.137C209.202 204.899 211.181 204.46 213.096 203.837C213.306 203.773 213.581 203.718 213.719 203.901C213.838 204.066 213.636 204.386 213.554 204.505C213.013 205.375 209.88 206.273 208.725 206.584" fill="#F8D0E2"/>
<path d="M201.01 213.379C200.882 211.346 200.763 209.313 200.635 207.289C200.561 206.053 200.424 204.698 199.535 203.846C198.857 205.064 198.601 206.474 198.491 207.866C198.307 210.165 198.491 212.491 199.031 214.734C199.15 215.229 199.819 217.436 200.58 216.822C201.322 216.227 201.056 214.185 201.01 213.379Z" fill="#E0E0E0"/>
<path d="M201.615 205.677C201.944 205.659 202.348 205.677 202.494 205.98C202.531 206.053 202.54 206.126 202.558 206.208C202.943 208.37 203.181 210.558 203.291 212.747C203.3 212.958 203.31 213.177 203.227 213.379C203.044 213.837 202.476 213.992 201.981 214.056C200.946 214.194 199.892 214.203 198.848 214.075C198.784 214.066 198.71 214.056 198.655 214.02C198.582 213.965 198.554 213.864 198.527 213.773C198.307 212.838 198.078 211.914 197.858 210.98C197.657 210.155 197.455 209.313 197.446 208.461C197.437 207.765 197.537 206.355 198.261 206.044C198.71 205.851 199.425 205.888 199.91 205.833C200.479 205.769 201.047 205.714 201.615 205.677Z" fill="#5F88D2"/>
<path d="M220.426 157.802C220.261 158.617 220.114 159.468 219.977 160.366C219.839 161.309 219.739 162.207 219.656 163.067C220.215 163.012 220.783 162.948 221.342 162.893" fill="#EBBCD5"/>
<path d="M239.822 231.474C239.74 231.474 239.666 231.474 239.584 231.474C242.699 231.483 245.906 230.604 249.003 231.071C248.471 231.593 247.289 231.722 246.584 231.831C245.347 232.033 244.128 232.042 242.892 231.95C241.664 231.859 240.537 231.474 239.822 231.474Z" fill="#E0E0E0"/>
<path d="M229.294 178.599C228.927 179.139 228.882 179.771 228.341 180.229C228.204 179.844 229.065 178.937 229.294 178.599Z" fill="#5F88D2"/>
<path d="M229.083 158.571C229.184 158.993 228.964 159.423 228.762 159.798C228.606 160.082 228.441 160.522 228.212 160.732C228.093 160.384 228.249 159.872 228.386 159.551C228.432 159.423 229.083 158.571 229.083 158.571Z" fill="#EBBCD5"/>
<path d="M214.158 159.011C214.14 158.993 214.112 158.983 214.085 158.983C214.039 158.993 214.03 159.047 214.03 159.093C214.011 159.469 214.048 159.863 214.213 160.211C214.369 160.531 214.699 160.861 215.065 160.879C215.147 160.229 214.68 159.368 214.158 159.011Z" fill="#EBBCD5"/>
<path opacity="0.2121" d="M210.869 180.494C211.391 178.965 211.804 177.399 212.115 175.815C212.198 175.412 212.207 174.78 212.683 174.734C212.463 176.758 211.52 178.599 210.869 180.494Z" fill="#D6C5DF"/>
<path opacity="0.2121" d="M214.836 180.669C213.608 180.678 211.895 180.989 210.74 180.66C211.455 179.762 213.892 180.513 214.836 180.669Z" fill="#D6C5DF"/>
<path opacity="0.2121" d="M216.806 195.568C215.597 193.553 214.543 191.474 213.655 189.331C213.224 188.287 212.83 187.225 212.482 186.163C212.152 185.174 212.051 183.819 211.474 182.939C210.997 183.434 211.987 185.293 212.198 185.888C212.601 187.024 213.05 188.141 213.535 189.249C214.488 191.401 215.579 193.516 216.806 195.568Z" fill="#D6C5DF"/>
<path opacity="0.2121" d="M235.91 179.963C235.992 180.311 235.708 180.668 235.369 180.797C235.03 180.925 234.655 180.897 234.297 180.87C233.766 180.833 233.235 180.852 232.703 180.842C232.905 180.394 235.864 179.762 235.91 179.963Z" fill="#D6C5DF"/>
<path opacity="0.2121" d="M230.688 171.676C232.731 173.764 233.858 176.502 235.534 178.855C234.123 176.328 232.74 173.773 230.688 171.676Z" fill="#D6C5DF"/>
<path opacity="0.2121" d="M230.825 189.615C230.037 190.659 229.24 191.703 228.662 192.875C227.755 194.734 227.462 196.831 226.857 198.809C227.261 197.271 227.911 195.375 229.011 193.342C229.734 191.987 230.513 190.851 231.246 189.917C232.666 188.168 234.086 186.41 235.516 184.661C235.387 184.45 235.259 184.249 235.131 184.038C233.509 185.65 232.208 187.793 230.825 189.615Z" fill="#D6C5DF"/>
<path opacity="0.2121" d="M240.095 220.385C240.077 218.123 240.361 215.87 240.618 213.617C241.323 207.582 241.891 201.538 242.34 195.476C242.487 193.416 242.615 191.273 241.845 189.359C239.536 199.066 239.307 209.13 239.088 219.112C239.051 220.613 238.391 227.866 240.343 228.233C240.847 225.769 240.114 222.894 240.095 220.385Z" fill="#D6C5DF"/>
<path opacity="0.2121" d="M237.595 223.525C235.479 225.165 232.794 225.796 230.678 223.937C232.987 225.339 235.305 225.302 237.595 223.525Z" fill="#D6C5DF"/>
<path opacity="0.2121" d="M213.324 227.188C214.029 227.079 214.762 226.932 215.449 227.115C214.176 227.381 212.902 227.619 211.62 227.82C210.731 227.958 209.201 228.48 208.395 228.068C208.761 226.978 212.307 227.344 213.324 227.188Z" fill="#D6C5DF"/>
<path d="M196.007 203.645C195.448 203.599 194.899 203.553 194.34 203.581C193.048 203.636 191.765 204.093 190.739 204.881C189.227 206.053 188.357 207.848 187.541 209.579C187.441 209.789 187.34 210.009 187.294 210.238C187.175 210.833 187.45 211.438 187.77 211.96C189.291 214.451 192.013 216.163 194.917 216.456C195.366 216.502 195.476 216.484 196.997 216.63C198.444 216.758 199.635 216.896 200.414 216.996C200.139 216.218 199.828 215.201 199.544 213.993C199.342 213.114 199.077 211.951 198.948 210.403C198.866 209.386 198.738 207.656 199.159 205.476C199.287 204.808 199.434 204.267 199.544 203.883C199.379 203.883 199.104 203.883 198.774 203.874C197.62 203.837 197.043 203.727 196.007 203.645Z" fill="white"/>
<path opacity="0.2121" d="M186.278 208.681C186.195 209.295 186.122 210.165 186.378 211.181C186.827 212.976 188 214.103 188.586 214.606C188.284 214.524 187.853 214.377 187.405 214.084C185.829 213.04 185.508 211.117 185.435 210.65C184.922 207.555 186.965 204.588 188.137 202.894C189.475 200.824 190.639 199.496 190.675 199.524C190.749 199.57 186.919 204.112 186.278 208.681Z" fill="#D6C5DF"/>
<path d="M220.626 182.024C220.608 181.309 222.12 179.185 221.424 178.599C220.727 179.377 220.599 181.025 220.626 182.024Z" fill="#5F88D2"/>
<path d="M218.996 179.698C218.409 179.039 217.777 178.398 217.355 177.619C218.024 179.075 218.986 180.376 219.967 181.639C220.067 181.758 220.168 181.887 220.315 181.951C221.048 182.262 220.269 181.246 220.15 181.09C219.783 180.614 219.399 180.156 218.996 179.698Z" fill="#5F88D2"/>
<path d="M221.589 214.899C221.113 205.33 220.114 195.797 219.125 186.264C219.079 185.797 219.143 184.341 218.731 182.473C218.355 180.769 217.796 179.46 217.43 178.709C217.485 180.073 217.595 182.097 217.833 184.542C218.199 188.398 218.593 190.266 218.996 193.141C219.757 198.562 219.894 202.775 219.995 206.008C220.123 209.982 220.032 212.812 219.894 216.914C219.748 221.337 219.455 227.262 218.822 234.313C218.758 235.119 218.694 235.925 218.639 236.731C219.244 235.907 220.068 234.625 220.682 232.921C221.635 230.275 221.47 228.04 221.562 226.896C221.892 222.912 221.782 218.892 221.589 214.899Z" fill="#5F88D2"/>
<path d="M227.875 180.476C227.829 179.935 227.114 179.194 226.757 178.827C226.271 178.333 225.658 178.049 225.145 177.637C225.493 177.216 226.656 178.196 226.931 178.47C227.453 179.011 227.811 179.725 227.875 180.476Z" fill="#5F88D2"/>
<path d="M225.281 236.575C224.969 232.6 224.667 228.635 224.355 224.661C224.154 222.033 223.943 219.404 223.852 216.767C223.787 215.137 223.769 213.498 223.751 211.868C223.677 206.08 223.604 200.302 223.531 194.514C223.476 190.357 223.485 186.209 223.952 182.069C223.842 196.227 223.815 210.339 224.539 224.478C224.74 228.516 224.988 232.546 225.281 236.575Z" fill="#5F88D2"/>
<path d="M247.426 234.734C246.061 235.009 244.366 235.211 242.415 235.119C241.499 235.073 240.665 234.982 239.904 234.844C239.968 233.736 240.033 232.628 240.097 231.52C241.251 231.419 242.406 231.319 243.569 231.218C244.174 231.126 244.843 231.044 245.557 231.007C246.19 230.971 246.785 230.961 247.335 230.971C247.362 232.225 247.399 233.48 247.426 234.734Z" fill="#5F88D2"/>
<path d="M217.283 170.989C216.449 171.429 215.982 172.326 215.615 173.196C214.351 176.172 213.664 179.396 213.6 182.628" stroke="black" stroke-width="0.5" stroke-miterlimit="10"/>
<path d="M228.332 170.421C228.946 170.512 229.477 170.906 229.908 171.355C230.962 172.436 231.64 173.837 232.052 175.284C232.473 176.73 232.647 178.241 232.822 179.734" stroke="black" stroke-width="0.5" stroke-miterlimit="10"/>
<path opacity="0.2121" d="M213.554 186.492C214.708 186.492 215.643 185.557 215.643 184.404C215.643 183.251 214.708 182.316 213.554 182.316C212.4 182.316 211.465 183.251 211.465 184.404C211.465 185.557 212.4 186.492 213.554 186.492Z" fill="#D6C5DF"/>
<path d="M229.789 186.822C229.826 184.872 230.293 182.93 231.145 181.172C231.466 180.503 231.924 179.807 232.648 179.652C233.271 179.524 233.921 179.872 234.315 180.366C234.709 180.87 234.902 181.492 235.057 182.115C235.488 183.846 235.699 185.622 235.69 187.399" stroke="black" stroke-width="0.5" stroke-miterlimit="10"/>
<path d="M214.057 186.081C215.054 186.081 215.862 185.273 215.862 184.277C215.862 183.28 215.054 182.473 214.057 182.473C213.06 182.473 212.252 183.28 212.252 184.277C212.252 185.273 213.06 186.081 214.057 186.081Z" stroke="black" stroke-width="0.5" stroke-miterlimit="10"/>
<path opacity="0.2" d="M454.519 317.482C494.55 317.482 527.001 315.875 527.001 313.892C527.001 311.909 494.55 310.302 454.519 310.302C414.488 310.302 382.037 311.909 382.037 313.892C382.037 315.875 414.488 317.482 454.519 317.482Z" fill="#A6CAFC"/>
<path d="M429.268 236.126H434.646L434.142 232.363C433.995 231.291 433.088 230.495 432.007 230.495C430.944 230.495 430.046 231.264 429.872 232.308L429.268 236.126Z" fill="#B3D2F8"/>
<path d="M433.087 235.852C433.087 235.852 432.84 233.041 431.96 233.041C431.08 233.041 430.879 235.852 430.879 235.852" fill="#FDB756"/>
<path d="M429.854 245.092H434.453C436.368 245.092 437.926 243.544 437.926 241.621V238.755C437.926 236.841 436.378 235.284 434.453 235.284H429.597C427.683 235.284 426.125 236.832 426.125 238.755V241.365C426.134 243.425 427.802 245.092 429.854 245.092Z" fill="#182852"/>
<path d="M378.079 296.026C379.663 296.026 380.947 294.743 380.947 293.16C380.947 291.577 379.663 290.293 378.079 290.293C376.495 290.293 375.211 291.577 375.211 293.16C375.211 294.743 376.495 296.026 378.079 296.026Z" fill="#5F88D2"/>
<path d="M378.079 297.83C378.711 300.046 379.517 301.804 380.489 302.647C382.348 304.249 408.287 305.092 436.167 305.074C446.356 305.064 456.8 304.945 466.421 304.707C486.999 304.194 503.812 303.141 506.286 301.511C506.863 301.136 507.302 299.817 507.642 297.83C508.21 294.46 508.484 288.874 508.53 282.5C508.558 279.149 508.521 275.568 508.439 271.978C508.2 261.832 507.577 250.064 506.817 243.462C506.67 242.143 506.505 241.035 506.35 240.183C506.176 239.259 506.001 238.645 505.818 238.398C504.801 236.997 486.807 237.18 466.412 237.042C456.324 236.978 445.65 237.052 436.158 237.262C420.619 237.601 408.223 238.297 406.72 239.304C406.372 239.542 406.014 239.835 405.648 240.193C404.814 241.017 403.953 242.134 403.083 243.471C397.659 251.832 392.143 268.334 392.143 268.334C392.143 268.334 388.725 269.955 385.125 271.978C381.625 273.947 377.96 276.292 377.108 277.922C376.686 278.718 376.439 280.385 376.366 282.5C376.191 286.923 376.787 293.325 378.079 297.83Z" fill="#FAFFFF"/>
<path opacity="0.2" d="M436.158 248.471V305.064C446.347 305.055 456.791 304.954 466.412 304.753V248.315C466.412 247.115 465.441 246.145 464.24 246.136C455.564 246.099 446.548 246.154 438.293 246.291C437.111 246.319 436.158 247.289 436.158 248.471Z" fill="#A6CAFC"/>
<path d="M378.078 297.83C378.71 300.046 379.517 301.804 380.488 302.647C384.483 306.099 499.468 306.008 506.285 301.511C506.862 301.136 507.302 299.817 507.641 297.83H378.078Z" fill="#203765"/>
<path d="M469.461 302.253C472.759 302.189 476.049 302.125 479.347 302.042C483.461 301.942 487.575 301.832 491.67 301.429C492.88 301.31 494.08 301.136 495.28 300.944C493.942 295.119 488.72 290.77 482.49 290.77C475.792 290.77 470.267 295.779 469.461 302.253Z" fill="#203765"/>
<path d="M388.643 301.411C397.255 302.18 405.922 302.4 414.59 302.491C413.894 295.907 408.314 290.77 401.543 290.77C395.139 290.77 389.806 295.348 388.643 301.411Z" fill="#203765"/>
<path opacity="0.2" d="M397.365 268.187H413.747C414.764 268.187 415.36 268.187 415.36 268.187L416.258 262.418L417.21 256.328L418.796 246.126L409.798 246.209L405.684 246.246C405.684 246.246 405.62 246.355 405.492 246.575C405.089 247.271 404.099 249.057 402.872 251.786C402.716 252.143 402.551 252.509 402.386 252.903C402.093 253.581 401.781 254.313 401.479 255.092C401.177 255.852 400.865 256.648 400.563 257.491C399.445 260.531 398.318 264.13 397.365 268.187Z" fill="#A6CAFC"/>
<path opacity="0.2" d="M419.088 268.187C419.088 268.187 424.924 268.187 429.056 268.187H431.484L431.539 262.537L431.594 257.115L431.704 246.126H422.441C422.313 246.126 422.24 246.126 422.24 246.126L421.635 250.376L421.204 253.407L419.088 268.187Z" fill="#A6CAFC"/>
<path d="M489.852 311.252C493.921 307.186 493.921 300.593 489.852 296.527C485.784 292.461 479.188 292.461 475.12 296.527C471.052 300.593 471.052 307.186 475.12 311.252C479.188 315.318 485.784 315.318 489.852 311.252Z" fill="#2D3C62"/>
<path d="M482.491 311.255C486.56 311.255 489.858 307.958 489.858 303.892C489.858 299.826 486.56 296.529 482.491 296.529C478.423 296.529 475.125 299.826 475.125 303.892C475.125 307.958 478.423 311.255 482.491 311.255Z" fill="#E1E2F5"/>
<path d="M482.49 307.445C484.454 307.445 486.045 305.854 486.045 303.892C486.045 301.93 484.454 300.339 482.49 300.339C480.527 300.339 478.936 301.93 478.936 303.892C478.936 305.854 480.527 307.445 482.49 307.445Z" fill="#182852"/>
<path d="M480.586 303.892C480.586 302.848 481.438 301.996 482.482 301.996C483.527 301.996 484.379 302.848 484.379 303.892C484.379 304.936 483.527 305.787 482.482 305.787C481.438 305.787 480.586 304.936 480.586 303.892Z" fill="#FAFFFF"/>
<path d="M411.68 306.319C413.002 300.723 409.535 295.115 403.936 293.794C398.337 292.472 392.726 295.938 391.404 301.534C390.082 307.13 393.549 312.738 399.148 314.06C404.747 315.381 410.358 311.916 411.68 306.319Z" fill="#2D3C62"/>
<path d="M401.534 311.255C405.603 311.255 408.901 307.958 408.901 303.892C408.901 299.826 405.603 296.529 401.534 296.529C397.466 296.529 394.168 299.826 394.168 303.892C394.168 307.958 397.466 311.255 401.534 311.255Z" fill="#E1E2F5"/>
<path d="M401.533 307.445C403.497 307.445 405.088 305.854 405.088 303.892C405.088 301.93 403.497 300.339 401.533 300.339C399.57 300.339 397.979 301.93 397.979 303.892C397.979 305.854 399.57 307.445 401.533 307.445Z" fill="#182852"/>
<path d="M399.637 303.892C399.637 302.848 400.489 301.997 401.533 301.997C402.578 301.997 403.43 302.848 403.43 303.892C403.43 304.936 402.578 305.788 401.533 305.788C400.489 305.788 399.637 304.936 399.637 303.892Z" fill="#FAFFFF"/>
<path d="M403.092 243.462H506.826C506.679 242.143 506.515 241.035 506.359 240.184H405.657C404.814 241.008 403.962 242.134 403.092 243.462Z" fill="#5F88D2"/>
<path d="M488.179 246.126H492.825C493.695 246.126 494.401 245.421 494.401 244.551V243.407C494.401 242.537 493.695 241.832 492.825 241.832H488.179C487.309 241.832 486.604 242.537 486.604 243.407V244.551C486.604 245.421 487.309 246.126 488.179 246.126Z" fill="#FAFFFF"/>
<path opacity="0.2" d="M488.849 245.824H492.165C492.825 245.824 493.366 245.293 493.366 244.625V243.755C493.366 243.095 492.834 242.555 492.165 242.555H488.849C488.189 242.555 487.648 243.086 487.648 243.755V244.625C487.648 245.293 488.18 245.824 488.849 245.824Z" fill="#A6CAFC"/>
<path d="M496.838 246.126H501.483C502.353 246.126 503.059 245.421 503.059 244.551V243.407C503.059 242.537 502.353 241.832 501.483 241.832H496.838C495.967 241.832 495.262 242.537 495.262 243.407V244.551C495.262 245.421 495.967 246.126 496.838 246.126Z" fill="#FAFFFF"/>
<path d="M497.499 245.824H500.816C501.475 245.824 502.016 245.293 502.016 244.625V243.755C502.016 243.095 501.485 242.555 500.816 242.555H497.499C496.839 242.555 496.299 243.086 496.299 243.755V244.625C496.308 245.293 496.839 245.824 497.499 245.824Z" fill="#FBDDD0"/>
<path d="M501.391 282.491H497.809L487.281 271.979H490.873L501.391 282.491Z" fill="#FF707F"/>
<path d="M479.742 271.979H483.334L493.861 282.491H490.27L479.742 271.979Z" fill="#FF707F"/>
<path d="M494.822 271.979H508.446C508.529 275.568 508.566 279.149 508.538 282.5H505.35L494.822 271.979Z" fill="#FF707F"/>
<path d="M472.201 271.979H475.793L486.32 282.491H482.728L472.201 271.979Z" fill="#FF707F"/>
<path d="M436.157 282.491H376.355C376.429 280.376 376.676 278.709 377.098 277.912C377.959 276.292 381.624 273.938 385.115 271.969H436.157V282.491Z" fill="#FF707F"/>
<path d="M466.42 271.979H468.252L478.78 282.491H466.42V271.979Z" fill="#FF707F"/>
<path d="M465.192 271.979H437.385V282.5H465.192V271.979Z" fill="#FF707F"/>
<path d="M439.291 275.596H443.359C443.616 275.596 443.827 275.385 443.827 275.129V274.79C443.827 274.533 443.616 274.323 443.359 274.323H439.291C439.035 274.323 438.824 274.533 438.824 274.79V275.129C438.824 275.385 439.035 275.596 439.291 275.596Z" fill="#182852"/>
<path d="M409.825 275.596H413.893C414.149 275.596 414.36 275.385 414.36 275.129V274.79C414.36 274.533 414.149 274.323 413.893 274.323H409.825C409.568 274.323 409.357 274.533 409.357 274.79V275.129C409.357 275.385 409.568 275.596 409.825 275.596Z" fill="#182852"/>
<path d="M504.755 296.09C505.565 296.09 506.221 295.434 506.221 294.625C506.221 293.816 505.565 293.16 504.755 293.16C503.945 293.16 503.289 293.816 503.289 294.625C503.289 295.434 503.945 296.09 504.755 296.09Z" fill="#FBDDD0"/>
<path d="M486.695 266.519H490.836V251.592H486.695V266.519Z" fill="#B3D2F8"/>
<path d="M481.256 261.005L483.326 264.589L496.259 257.126L494.189 253.541L481.256 261.005Z" fill="#B3D2F8"/>
<path d="M483.325 253.537L481.254 257.122L494.187 264.585L496.258 261L483.325 253.537Z" fill="#B3D2F8"/>
<path d="M399.866 263.755V269.762C399.866 269.762 396.815 269.799 396.064 269.176C394.864 268.187 394.305 266.52 395.578 265.156C396.504 264.158 399.866 263.755 399.866 263.755Z" fill="#182852"/>
<path d="M422.441 246.126L431.539 262.537L431.594 257.115L425.199 246.126H422.441Z" fill="#FAFFFF"/>
<path d="M421.205 253.407L429.057 268.187H431.064L421.636 250.375L421.205 253.407Z" fill="#FAFFFF"/>
<path d="M405.482 246.566L416.248 262.418L417.201 256.328L409.798 246.209L405.684 246.246C405.675 246.236 405.611 246.356 405.482 246.566Z" fill="#FAFFFF"/>
<path d="M402.377 252.894L412.474 268.187H413.738L402.863 251.777C402.716 252.134 402.551 252.509 402.377 252.894Z" fill="#FAFFFF"/>
<path d="M400.553 257.482L407.919 268.187H410.164L401.478 255.083C401.167 255.843 400.864 256.639 400.553 257.482Z" fill="#FAFFFF"/>
<path d="M429.805 293.626C430.19 293.626 430.492 293.744 430.71 293.98C430.927 294.214 431.036 294.551 431.036 294.991C431.036 295.303 430.977 295.571 430.859 295.794C430.744 296.017 430.58 296.186 430.367 296.301C430.155 296.417 429.91 296.474 429.632 296.474C429.485 296.474 429.345 296.459 429.211 296.427C429.077 296.393 428.963 296.346 428.868 296.286L429.105 295.817C429.238 295.909 429.41 295.955 429.62 295.955C429.853 295.955 430.038 295.887 430.175 295.751C430.311 295.612 430.384 295.412 430.395 295.153C430.23 295.318 430.002 295.4 429.71 295.4C429.535 295.4 429.375 295.365 429.23 295.294C429.086 295.223 428.972 295.124 428.888 294.995C428.804 294.864 428.762 294.713 428.762 294.543C428.762 294.359 428.808 294.198 428.9 294.059C428.992 293.92 429.116 293.814 429.274 293.74C429.434 293.664 429.611 293.626 429.805 293.626ZM429.852 294.924C429.991 294.924 430.104 294.886 430.19 294.81C430.28 294.732 430.324 294.632 430.324 294.511C430.324 294.391 430.281 294.292 430.194 294.216C430.11 294.14 429.994 294.102 429.844 294.102C429.708 294.102 429.596 294.139 429.51 294.212C429.426 294.286 429.384 294.385 429.384 294.511C429.384 294.637 429.426 294.738 429.51 294.814C429.596 294.888 429.71 294.924 429.852 294.924ZM432.381 293.673V296.427H431.744V294.185H431.193V293.673H432.381ZM429.899 298.673V301.427H429.262V299.185H428.711V298.673H429.899Z" fill="#182852"/>
<path d="M432.768 231.942C432.768 232.18 432.96 232.372 433.198 232.372C433.436 232.372 433.629 232.18 433.629 231.942C433.629 231.704 433.436 231.511 433.198 231.511C432.96 231.511 432.768 231.704 432.768 231.942Z" fill="#FAFFFF"/>
<path d="M435.92 232.665C435.783 232.665 435.664 232.573 435.636 232.436C435.6 232.28 435.701 232.125 435.865 232.088L439.943 231.227C440.098 231.191 440.254 231.291 440.291 231.456C440.327 231.612 440.227 231.768 440.062 231.804L435.985 232.665C435.966 232.665 435.939 232.665 435.92 232.665Z" fill="#B3D2F8"/>
<path d="M434.656 230.055C434.574 230.055 434.491 230.019 434.436 229.955C434.326 229.835 434.336 229.652 434.455 229.542L437.735 226.603C437.854 226.493 438.037 226.502 438.147 226.621C438.257 226.74 438.248 226.923 438.129 227.033L434.849 229.973C434.794 230.037 434.72 230.055 434.656 230.055Z" fill="#B3D2F8"/>
<path d="M428.297 232.665C428.278 232.665 428.26 232.665 428.233 232.656L424.155 231.795C424 231.758 423.899 231.603 423.926 231.447C423.963 231.291 424.119 231.19 424.275 231.218L428.352 232.079C428.507 232.115 428.608 232.271 428.581 232.427C428.553 232.564 428.434 232.665 428.297 232.665Z" fill="#B3D2F8"/>
<path d="M429.57 230.055C429.496 230.055 429.432 230.027 429.377 229.982L426.097 227.042C425.978 226.932 425.969 226.749 426.079 226.63C426.189 226.511 426.372 226.502 426.491 226.612L429.771 229.551C429.89 229.661 429.9 229.844 429.79 229.963C429.726 230.027 429.643 230.055 429.57 230.055Z" fill="#B3D2F8"/>
<path d="M432.035 229.588C431.87 229.588 431.742 229.46 431.742 229.295V225.412C431.742 225.247 431.87 225.119 432.035 225.119C432.2 225.119 432.329 225.247 432.329 225.412V229.295C432.329 229.451 432.191 229.588 432.035 229.588Z" fill="#B3D2F8"/>
<path d="M147.439 315.687C147.439 315.559 147.448 315.43 147.448 315.302C146.468 315.806 144.819 316.493 142.675 316.685C140.842 316.85 139.33 316.593 138.323 316.346C138.268 316.603 138.213 316.868 138.148 317.125C139.294 317.299 140.98 317.436 142.968 317.115C144.901 316.813 146.413 316.2 147.439 315.687Z" fill="#B3D2F8"/>
<path d="M179.681 315.064C179.681 314.936 179.672 314.808 179.672 314.68C180.68 315.183 182.329 315.843 184.445 316.062C186.434 316.264 188.074 316.008 189.146 315.751C189.136 315.989 189.136 316.227 189.127 316.475C187.964 316.676 186.214 316.832 184.143 316.502C182.228 316.182 180.707 315.568 179.681 315.064Z" fill="#B3D2F8"/>
<path d="M219.252 315.229C219.252 315.156 219.261 315.073 219.261 315C218.4 315.339 217.163 315.723 215.633 315.852C214.048 315.989 212.729 315.806 211.812 315.614C211.812 315.778 211.822 315.952 211.822 316.117C212.82 316.273 214.222 316.392 215.881 316.154C217.264 315.962 218.409 315.577 219.252 315.229Z" fill="#7355A1"/>
<path d="M230.998 314.231C230.98 314.14 230.962 314.048 230.943 313.956C231.832 314.167 233.243 314.414 235.002 314.268C236.642 314.14 237.952 313.718 238.786 313.389C238.814 313.563 238.832 313.728 238.86 313.901C237.934 314.204 236.532 314.561 234.81 314.616C233.206 314.68 231.896 314.451 230.998 314.231Z" fill="#7355A1"/>
<path d="M422.9 134.707H415.698V126.768H409.266V134.707H401.771V141.136H409.266V147.894H415.698V141.136H422.9V134.707Z" fill="url(#paint2_linear_65_33)"/>
<path d="M89.5795 264.451H85.9879V260.495H82.7811V264.451H79.043V267.656H82.7811V271.026H85.9879V267.656H89.5795V264.451Z" fill="#FC6964"/>
<path d="M245.62 236.401C246.004 236.337 246.362 236.236 246.691 236.117C246.655 235.705 246.618 235.302 246.582 234.89C246.517 234.899 246.389 234.908 246.243 234.927C246.243 234.927 245.656 234.991 245.171 235.037C244.657 235.082 242.788 235.064 240.287 234.927C241.093 235.513 243.164 236.813 245.62 236.401Z" fill="#EBBCD5"/>
<path d="M191.215 228.736C192.25 228.91 193.56 229.24 194.98 229.854C196.062 230.321 196.969 230.843 197.692 231.337C197.601 231.062 197.436 230.669 197.124 230.284C196.804 229.89 196.282 229.442 194.66 228.947C193.872 228.709 192.745 228.443 191.334 228.333C191.288 228.462 191.251 228.599 191.215 228.736Z" fill="#EBBCD5"/>
<path d="M163.902 213.196C164.012 213.379 164.15 213.544 164.315 213.682C162.977 214.79 161.795 216.063 160.613 217.335C160.366 217.601 160.119 217.876 159.862 218.141C159.88 218.123 159.486 217.812 159.486 217.748C159.486 217.61 159.798 217.308 159.88 217.207C160.164 216.841 160.458 216.484 160.76 216.136C161.365 215.449 162.015 214.799 162.702 214.185C163.087 213.837 163.49 213.508 163.902 213.196Z" fill="#EBBCD5"/>
<path d="M98.0993 259.716H107.152V291.511H95.9004V261.914C95.9096 260.705 96.8899 259.716 98.0993 259.716Z" fill="#FF707F" stroke="white" stroke-miterlimit="10"/>
<path d="M118.404 259.716H107.152V291.511H118.404V259.716Z" fill="#FF707F" stroke="white" stroke-miterlimit="10"/>
<path opacity="0.2" d="M397.987 84.414C397.547 82.3444 399.828 80.2291 401.862 80.8243C401.413 77.8756 402.357 74.6613 404.62 72.7199C406.883 70.7785 410.475 70.403 412.893 72.1521C413.581 70.7693 415.166 69.8994 416.696 70.0551C418.226 70.2107 419.609 71.3829 420.003 72.8756C421.552 70.7785 424.896 70.3023 426.967 71.8957C429.037 73.4891 429.44 76.8408 427.8 78.8737C429.898 79.4781 431.374 81.6759 431.172 83.8554L397.987 84.414Z" fill="#A6CAFC"/>
<path opacity="0.2" d="M260.966 76.4743C260.05 72.1702 264.805 67.7655 269.029 69.0109C268.085 62.8845 270.046 56.1904 274.755 52.1611C279.455 48.1318 286.932 47.3442 291.953 50.9798C293.373 48.1135 296.671 46.2911 299.86 46.6116C303.048 46.9321 305.916 49.3772 306.731 52.4724C309.956 48.1043 316.91 47.1244 321.207 50.4395C325.505 53.7545 326.338 60.7233 322.939 64.9541C327.3 66.1995 330.361 70.7874 329.948 75.3021L260.966 76.4743Z" fill="#A6CAFC"/>
<path opacity="0.2" d="M364.858 45.9892C363.997 42.7658 363.392 39.231 364.72 36.1632C366.104 32.9672 369.32 30.9617 372.563 29.6888C377.557 27.72 384.126 27.4452 387.424 31.6669C390.723 35.8793 388.945 41.9782 386.93 46.9324C390.145 45.9526 393.783 49.3683 393.004 52.6467C395.258 51.383 398.3 51.7493 400.196 53.5075C402.084 55.2658 402.597 58.242 401.497 60.5771C389.605 60.5771 377.712 60.5771 365.82 60.5771C362.054 60.5771 355.512 61.8866 351.93 60.5771C340.468 56.4013 363.621 41.383 364.858 45.9892Z" fill="#A6CAFC"/>
<path opacity="0.2" d="M70.6225 91.8504C67.6447 89.2863 67.544 85.2204 69.4955 83.279C70.8423 81.9328 73.1787 81.6215 75.3318 82.4182C73.8842 78.1325 74.5714 73.3431 76.4038 69.2039C78.3462 64.8083 81.9653 60.7332 86.7204 60.0006C91.4756 59.2588 96.8813 63.2882 96.1575 68.0409C97.5227 67.4182 99.3001 67.8394 100.225 69.0208C101.16 70.2021 101.16 72.0244 100.235 73.2057C101.774 73.105 103.432 73.2057 104.651 74.149C105.869 75.0922 106.309 77.1343 105.173 78.1691C108.884 74.6984 115.197 74.4695 119.155 77.6563C123.113 80.8523 124.331 87.1343 121.711 91.4933C104.669 91.6123 87.6458 91.7314 70.6225 91.8504Z" fill="#A6CAFC"/>
<path opacity="0.2" d="M129.489 18.068C129.37 18.3245 129.26 18.5809 129.141 18.8373C128.673 17.8483 129.058 16.5387 129.983 15.9527C130.909 15.3757 132.256 15.5955 132.943 16.4472C131.908 13.7732 132.567 10.4124 134.821 8.63581C137.075 6.85925 140.822 7.19808 142.426 9.56987C142.05 6.39222 143.278 2.94899 145.917 1.14496C148.555 -0.659067 152.587 -0.356869 154.584 2.14313C156.022 3.95632 156.215 6.51126 155.647 8.7457C155.079 10.9801 153.833 12.9856 152.605 14.9453C153.466 14.1486 154.813 13.9288 155.885 14.3959C156.957 14.8629 157.708 15.9984 157.717 17.1706C157.855 17.5461 157.186 18.0039 156.911 17.7201L129.489 18.068Z" fill="#A6CAFC"/>
<path opacity="0.2" d="M41.0931 130.568C41.0015 130.77 40.9099 130.971 40.8182 131.173C40.4518 130.394 40.7541 129.36 41.4779 128.902C42.2109 128.444 43.2737 128.618 43.8143 129.295C42.9988 127.189 43.5211 124.543 45.2894 123.142C47.0669 121.741 50.0262 122.006 51.2906 123.874C50.9974 121.374 51.9595 118.654 54.0484 117.235C56.1283 115.816 59.3075 116.054 60.8834 118.023C62.0195 119.451 62.1753 121.466 61.7172 123.233C61.2682 125.001 60.2879 126.576 59.3259 128.123C60.0039 127.501 61.0667 127.317 61.9096 127.693C62.7617 128.059 63.3481 128.957 63.3572 129.882C63.4672 130.175 62.9358 130.532 62.7159 130.321L41.0931 130.568Z" fill="#A6CAFC"/>
<path d="M384.694 212.903H369.924C367.258 212.903 365.096 210.742 365.096 208.077V204.57C365.096 201.905 367.258 199.744 369.924 199.744H384.694C387.36 199.744 389.522 201.905 389.522 204.57V208.077C389.522 210.742 387.36 212.903 384.694 212.903Z" fill="white"/>
<path d="M369.557 208.976V203.673H370.638V208.023H372.58V208.976H369.557Z" fill="#203765"/>
<path d="M375.622 203.663H377.665L378.856 208.965H377.775L377.564 208.004H375.704L375.493 208.965H374.412L375.622 203.663ZM375.924 207.079H377.372L376.831 204.561H376.455L375.924 207.079Z" fill="#203765"/>
<path d="M383.291 203.663C384.363 203.663 384.949 204.057 384.949 205.064C384.949 205.669 384.784 205.971 384.363 206.236C384.812 206.429 385.05 206.758 385.05 207.445C385.05 208.507 384.39 208.965 383.327 208.965H381.211V203.663H383.291ZM382.283 204.588V205.852H383.245C383.666 205.852 383.85 205.632 383.85 205.211C383.85 204.771 383.639 204.588 383.236 204.588H382.283ZM382.283 206.758V208.05H383.263C383.712 208.05 383.95 207.921 383.95 207.39C383.95 206.951 383.694 206.749 383.263 206.749H382.283V206.758Z" fill="#203765"/>
</g>
<defs>
<linearGradient id="paint0_linear_65_33" x1="496.142" y1="135.482" x2="-89.7282" y2="276.805" gradientUnits="userSpaceOnUse">
<stop stop-color="#FBDDD0"/>
<stop offset="1" stop-color="#FC6964"/>
</linearGradient>
<linearGradient id="paint1_linear_65_33" x1="191.274" y1="-31.6514" x2="324.384" y2="377.509" gradientUnits="userSpaceOnUse">
<stop stop-color="#FBDDD0"/>
<stop offset="1" stop-color="#FC6964"/>
</linearGradient>
<linearGradient id="paint2_linear_65_33" x1="429.252" y1="93.3416" x2="399.272" y2="172.421" gradientUnits="userSpaceOnUse">
<stop stop-color="#FBDDD0"/>
<stop offset="1" stop-color="#FC6964"/>
</linearGradient>
<clipPath id="clip0_65_33">
<rect width="527" height="330" fill="white"/>
</clipPath>
</defs>
</svg>
